<svg xmlns="http://www.w3.org/2000/svg" xmlns:xlink="http://www.w3.org/1999/xlink" contentStyleType="text/css" data-diagram-type="ACTIVITY" height="1069px" preserveAspectRatio="none" style="width:837px;height:1069px;background:#FFFFFF;" version="1.1" viewBox="0 0 837 1069" width="837px" zoomAndPan="magnify"><title>Ticket Creation Flow</title><defs/><g><g class="title" data-source-line="8"><text fill="#000000" font-family="Verdana" font-size="22" font-weight="bold" lengthAdjust="spacing" textLength="254.5791" x="290.1038" y="35.4209">Ticket Creation Flow</text></g><ellipse cx="418.8933" cy="61.6094" fill="#FFFFFF" rx="10" ry="10" style="stroke:#000000;stroke-width:1;"/><rect fill="#FFFFFF" height="47.9375" rx="12.5" ry="12.5" style="stroke:#666666;stroke-width:1;" width="150.0313" x="343.8777" y="91.6094"/><text fill="#000000" font-family="Verdana" font-size="12" lengthAdjust="spacing" textLength="124.0195" x="353.8777" y="112.748">User sends message</text><text fill="#000000" font-family="Verdana" font-size="12" lengthAdjust="spacing" textLength="130.0313" x="353.8777" y="126.7168">with complex request</text><rect fill="#FFFFFF" height="33.9688" rx="12.5" ry="12.5" style="stroke:#666666;stroke-width:1;" width="161.4453" x="338.1707" y="159.5469"/><text fill="#000000" font-family="Verdana" font-size="12" lengthAdjust="spacing" textLength="141.4453" x="348.1707" y="180.6855">AI analyzes the request</text><polygon fill="#FFFFFF" points="376.5664,213.5156,461.2202,213.5156,473.2202,225.5156,461.2202,237.5156,376.5664,237.5156,364.5664,225.5156,376.5664,213.5156" style="stroke:#666666;stroke-width:1;"/><text fill="#000000" font-family="Verdana" font-size="11" lengthAdjust="spacing" textLength="84.6538" x="376.5664" y="229.3237">Can AI solve it?</text><text fill="#000000" font-family="Verdana" font-size="11" lengthAdjust="spacing" textLength="19.2178" x="345.3486" y="222.9214">Yes</text><text fill="#000000" font-family="Verdana" font-size="11" lengthAdjust="spacing" textLength="14.9585" x="473.2202" y="222.9214">No</text><rect fill="#FFFFFF" height="47.9375" rx="12.5" ry="12.5" style="stroke:#666666;stroke-width:1;" width="173.1465" x="189.0732" y="247.5156"/><text fill="#000000" font-family="Verdana" font-size="12" lengthAdjust="spacing" textLength="120.8789" x="199.0732" y="268.6543">Generates response</text><text fill="#000000" font-family="Verdana" font-size="12" lengthAdjust="spacing" textLength="153.1465" x="199.0732" y="282.623">and solves autonomously</text><ellipse cx="275.6465" cy="340.4219" fill="none" rx="11" ry="11" style="stroke:#000000;stroke-width:1;"/><ellipse cx="275.6465" cy="340.4219" fill="#FFFFFF" rx="6" ry="6" style="stroke:#000000;stroke-width:1;"/><rect fill="#FFFFFF" height="33.9688" rx="12.5" ry="12.5" style="stroke:#666666;stroke-width:1;" width="190.2207" x="467.0298" y="247.5156"/><text fill="#000000" font-family="Verdana" font-size="12" lengthAdjust="spacing" textLength="170.2207" x="477.0298" y="268.6543">AI suggests opening a ticket</text><polygon fill="#FFFFFF" points="521.113,315.4531,603.1672,315.4531,615.1672,327.4531,603.1672,339.4531,521.113,339.4531,509.113,327.4531,521.113,315.4531" style="stroke:#666666;stroke-width:1;"/><text fill="#000000" font-family="Verdana" font-size="11" lengthAdjust="spacing" textLength="82.0542" x="521.113" y="331.2612">User confirms?</text><text fill="#000000" font-family="Verdana" font-size="11" lengthAdjust="spacing" textLength="14.9585" x="494.1545" y="324.8589">No</text><text fill="#000000" font-family="Verdana" font-size="11" lengthAdjust="spacing" textLength="19.2178" x="615.1672" y="324.8589">Yes</text><rect fill="#FFFFFF" height="47.9375" rx="12.5" ry="12.5" style="stroke:#666666;stroke-width:1;" width="158.9785" x="392.2197" y="349.4531"/><text fill="#000000" font-family="Verdana" font-size="12" lengthAdjust="spacing" textLength="138.9785" x="402.2197" y="370.5918">AI attempts alternative</text><text fill="#000000" font-family="Verdana" font-size="12" lengthAdjust="spacing" textLength="56.4199" x="402.2197" y="384.5605">approach</text><ellipse cx="471.709" cy="428.3906" fill="none" rx="11" ry="11" style="stroke:#000000;stroke-width:1;"/><ellipse cx="471.709" cy="428.3906" fill="#FFFFFF" rx="6" ry="6" style="stroke:#000000;stroke-width:1;"/><rect fill="#FFFFFF" height="33.9688" rx="12.5" ry="12.5" style="stroke:#666666;stroke-width:1;" width="162.7461" x="571.1982" y="349.4531"/><text fill="#000000" font-family="Verdana" font-size="12" lengthAdjust="spacing" textLength="142.7461" x="581.1982" y="370.5918">User accepts escalation</text><path d="M557.6052,456.2422 L557.6052,472.375 L537.6052,476.375 L557.6052,480.375 L557.6052,496.5078 A0,0 0 0 0 557.6052,496.5078 L715.9495,496.5078 A0,0 0 0 0 715.9495,496.5078 L715.9495,466.2422 L705.9495,456.2422 L557.6052,456.2422 A0,0 0 0 0 557.6052,456.2422" fill="#FFFFCC" style="stroke:#000000;stroke-width:1;"/><path d="M705.9495,456.2422 L705.9495,466.2422 L715.9495,466.2422 L705.9495,456.2422" fill="#FFFFCC" style="stroke:#000000;stroke-width:1;"/><text fill="#000000" font-family="Verdana" font-size="13" lengthAdjust="spacing" textLength="137.3442" x="563.6052" y="473.3091">In openai-handlers.ts</text><text fill="#000000" font-family="Verdana" font-size="13" lengthAdjust="spacing" textLength="113.1787" x="563.6052" y="488.4419">via executeTool()</text><rect fill="#FFFFFF" height="33.9688" rx="12.5" ry="12.5" style="stroke:#666666;stroke-width:1;" width="237.4238" x="300.1814" y="459.3906"/><text fill="#000000" font-family="Verdana" font-size="12" lengthAdjust="spacing" textLength="217.4238" x="310.1814" y="480.5293">System invokes openTicket function</text><path d="M522.5603,506.5078 L522.5603,545.3398 L502.5603,549.3398 L522.5603,553.3398 L522.5603,592.1719 A0,0 0 0 0 522.5603,592.1719 L671.5227,592.1719 A0,0 0 0 0 671.5227,592.1719 L671.5227,516.5078 L661.5227,506.5078 L522.5603,506.5078 A0,0 0 0 0 522.5603,506.5078" fill="#FFFFCC" style="stroke:#000000;stroke-width:1;"/><path d="M661.5227,506.5078 L661.5227,516.5078 L671.5227,516.5078 L661.5227,506.5078" fill="#FFFFCC" style="stroke:#000000;stroke-width:1;"/><text fill="#000000" font-family="Verdana" font-size="13" lengthAdjust="spacing" textLength="114.9497" x="528.5603" y="523.5747">Main parameters:</text><text fill="#000000" font-family="Verdana" font-size="13" lengthAdjust="spacing" textLength="50.54" x="528.5603" y="538.7075">- UserId</text><text fill="#000000" font-family="Verdana" font-size="13" lengthAdjust="spacing" textLength="47.1504" x="528.5603" y="553.8403">- MsgId</text><text fill="#000000" font-family="Verdana" font-size="13" lengthAdjust="spacing" textLength="127.9624" x="528.5603" y="568.9731">- Problem summary</text><text fill="#000000" font-family="Verdana" font-size="13" lengthAdjust="spacing" textLength="115.3052" x="528.5603" y="584.106">- Relevant history</text><rect fill="#FFFFFF" height="47.9375" rx="12.5" ry="12.5" style="stroke:#666666;stroke-width:1;" width="167.334" x="335.2263" y="525.3711"/><text fill="#000000" font-family="Verdana" font-size="12" lengthAdjust="spacing" textLength="147.334" x="345.2263" y="546.5098">Creating ticket structure</text><text fill="#000000" font-family="Verdana" font-size="12" lengthAdjust="spacing" textLength="98.877" x="345.2263" y="560.4785">with parameters</text><rect fill="#FFFFFF" height="33.9688" rx="12.5" ry="12.5" style="stroke:#666666;stroke-width:1;" width="261.3652" x="288.2107" y="612.1719"/><text fill="#000000" font-family="Verdana" font-size="12" lengthAdjust="spacing" textLength="241.3652" x="298.2107" y="633.3105">System executes sendMessageToAdmin</text><rect fill="#000000" height="6" rx="2.5" ry="2.5" style="stroke:#000000;stroke-width:1;" width="821.4019" x="8.1924" y="666.1406"/><path d="M237.335,695.9766 L237.335,712.1094 L217.335,716.1094 L237.335,720.1094 L237.335,736.2422 A0,0 0 0 0 237.335,736.2422 L474.5742,736.2422 A0,0 0 0 0 474.5742,736.2422 L474.5742,705.9766 L464.5742,695.9766 L237.335,695.9766 A0,0 0 0 0 237.335,695.9766" fill="#FFFFCC" style="stroke:#000000;stroke-width:1;"/><path d="M464.5742,695.9766 L464.5742,705.9766 L474.5742,705.9766 L464.5742,695.9766" fill="#FFFFCC" style="stroke:#000000;stroke-width:1;"/><text fill="#000000" font-family="Verdana" font-size="13" lengthAdjust="spacing" textLength="216.2393" x="243.335" y="713.0435">Via updateTicketStatusByMsgId()</text><text fill="#000000" font-family="Verdana" font-size="13" lengthAdjust="spacing" textLength="144.5615" x="243.335" y="728.1763">in message repository</text><rect fill="#FFFFFF" height="47.9375" rx="12.5" ry="12.5" style="stroke:#666666;stroke-width:1;" width="195.1426" x="22.1924" y="692.1406"/><text fill="#000000" font-family="Verdana" font-size="12" lengthAdjust="spacing" textLength="154.4473" x="32.1924" y="713.2793">Updates status of original</text><text fill="#000000" font-family="Verdana" font-size="12" lengthAdjust="spacing" textLength="175.1426" x="32.1924" y="727.248">message (ticketOpen = true)</text><path d="M626.4512,695.9766 L626.4512,712.1094 L606.4512,716.1094 L626.4512,720.1094 L626.4512,736.2422 A0,0 0 0 0 626.4512,736.2422 L815.5942,736.2422 A0,0 0 0 0 815.5942,736.2422 L815.5942,705.9766 L805.5942,695.9766 L626.4512,695.9766 A0,0 0 0 0 626.4512,695.9766" fill="#FFFFCC" style="stroke:#000000;stroke-width:1;"/><path d="M805.5942,695.9766 L805.5942,705.9766 L815.5942,705.9766 L805.5942,695.9766" fill="#FFFFCC" style="stroke:#000000;stroke-width:1;"/><text fill="#000000" font-family="Verdana" font-size="13" lengthAdjust="spacing" textLength="154.4766" x="632.4512" y="713.0435">Via getOrCreateTicket()</text><text fill="#000000" font-family="Verdana" font-size="13" lengthAdjust="spacing" textLength="168.1431" x="632.4512" y="728.1763">in ticketsCashe.ts module</text><rect fill="#FFFFFF" height="47.9375" rx="12.5" ry="12.5" style="stroke:#666666;stroke-width:1;" width="103.877" x="502.5742" y="692.1406"/><text fill="#000000" font-family="Verdana" font-size="12" lengthAdjust="spacing" textLength="83.877" x="512.5742" y="713.2793">Creates ticket</text><text fill="#000000" font-family="Verdana" font-size="12" lengthAdjust="spacing" textLength="58.1367" x="512.5742" y="727.248">in system</text><rect fill="#000000" height="6" rx="2.5" ry="2.5" style="stroke:#000000;stroke-width:1;" width="821.4019" x="8.1924" y="760.0781"/><rect fill="#FFFFFF" height="47.9375" rx="12.5" ry="12.5" style="stroke:#666666;stroke-width:1;" width="180.1133" x="328.8367" y="786.0781"/><text fill="#000000" font-family="Verdana" font-size="12" lengthAdjust="spacing" textLength="154.9688" x="338.8367" y="807.2168">System sends notification</text><text fill="#000000" font-family="Verdana" font-size="12" lengthAdjust="spacing" textLength="160.1133" x="338.8367" y="821.1855">to administrative channels</text><rect fill="#000000" height="6" rx="2.5" ry="2.5" style="stroke:#000000;stroke-width:1;" width="825.7866" x="6" y="854.0156"/><path d="M203.3555,883.8516 L203.3555,899.9844 L183.3555,903.9844 L203.3555,907.9844 L203.3555,924.1172 A0,0 0 0 0 203.3555,924.1172 L375.1187,924.1172 A0,0 0 0 0 375.1187,924.1172 L375.1187,893.8516 L365.1187,883.8516 L203.3555,883.8516 A0,0 0 0 0 203.3555,883.8516" fill="#FFFFCC" style="stroke:#000000;stroke-width:1;"/><path d="M365.1187,883.8516 L365.1187,893.8516 L375.1187,893.8516 L365.1187,883.8516" fill="#FFFFCC" style="stroke:#000000;stroke-width:1;"/><text fill="#000000" font-family="Verdana" font-size="13" lengthAdjust="spacing" textLength="137.1538" x="209.3555" y="900.9185">Sent to first admin in</text><text fill="#000000" font-family="Verdana" font-size="13" lengthAdjust="spacing" textLength="150.7632" x="209.3555" y="916.0513">TelegramAdminIdArray</text><rect fill="#FFFFFF" height="47.9375" rx="12.5" ry="12.5" style="stroke:#666666;stroke-width:1;" width="163.3555" x="20" y="880.0156"/><text fill="#000000" font-family="Verdana" font-size="12" lengthAdjust="spacing" textLength="128.3203" x="30" y="901.1543">Telegram notification</text><text fill="#000000" font-family="Verdana" font-size="12" lengthAdjust="spacing" textLength="143.3555" x="30" y="915.123">with interactive buttons</text><path d="M588.9644,883.8516 L588.9644,899.9844 L568.9644,903.9844 L588.9644,907.9844 L588.9644,924.1172 A0,0 0 0 0 588.9644,924.1172 L817.7866,924.1172 A0,0 0 0 0 817.7866,924.1172 L817.7866,893.8516 L807.7866,883.8516 L588.9644,883.8516 A0,0 0 0 0 588.9644,883.8516" fill="#FFFFCC" style="stroke:#000000;stroke-width:1;"/><path d="M807.7866,883.8516 L807.7866,893.8516 L817.7866,893.8516 L807.7866,883.8516" fill="#FFFFCC" style="stroke:#000000;stroke-width:1;"/><text fill="#000000" font-family="Verdana" font-size="13" lengthAdjust="spacing" textLength="207.8223" x="594.9644" y="900.9185">Through KONSOLEX_ENDPOINT.</text><text fill="#000000" font-family="Verdana" font-size="13" lengthAdjust="spacing" textLength="130.2793" x="594.9644" y="916.0513">MESSAGES_UPDATE</text><rect fill="#FFFFFF" height="47.9375" rx="12.5" ry="12.5" style="stroke:#666666;stroke-width:1;" width="165.8457" x="403.1187" y="880.0156"/><text fill="#000000" font-family="Verdana" font-size="12" lengthAdjust="spacing" textLength="145.8457" x="413.1187" y="901.1543">Updates web dashboard</text><text fill="#000000" font-family="Verdana" font-size="12" lengthAdjust="spacing" textLength="68.6836" x="413.1187" y="915.123">in real time</text><rect fill="#000000" height="6" rx="2.5" ry="2.5" style="stroke:#000000;stroke-width:1;" width="825.7866" x="6" y="947.9531"/><rect fill="#FFFFFF" height="47.9375" rx="12.5" ry="12.5" style="stroke:#666666;stroke-width:1;" width="163.5664" x="337.1101" y="973.9531"/><text fill="#000000" font-family="Verdana" font-size="12" lengthAdjust="spacing" textLength="143.5664" x="347.1101" y="995.0918">Confirms ticket opening</text><text fill="#000000" font-family="Verdana" font-size="12" lengthAdjust="spacing" textLength="42.0352" x="347.1101" y="1009.0605">to user</text><ellipse cx="418.8933" cy="1052.8906" fill="none" rx="11" ry="11" style="stroke:#000000;stroke-width:1;"/><ellipse cx="418.8933" cy="1052.8906" fill="#FFFFFF" rx="6" ry="6" style="stroke:#000000;stroke-width:1;"/><line style="stroke:#666666;stroke-width:1;" x1="418.8933" x2="418.8933" y1="71.6094" y2="91.6094"/><polygon fill="#666666" points="414.8933,81.6094,418.8933,91.6094,422.8933,81.6094,418.8933,85.6094" style="stroke:#666666;stroke-width:1;"/><line style="stroke:#666666;stroke-width:1;" x1="418.8933" x2="418.8933" y1="139.5469" y2="159.5469"/><polygon fill="#666666" points="414.8933,149.5469,418.8933,159.5469,422.8933,149.5469,418.8933,153.5469" style="stroke:#666666;stroke-width:1;"/><line style="stroke:#666666;stroke-width:1;" x1="275.6465" x2="275.6465" y1="295.4531" y2="329.4219"/><polygon fill="#666666" points="271.6465,319.4219,275.6465,329.4219,279.6465,319.4219,275.6465,323.4219" style="stroke:#666666;stroke-width:1;"/><line style="stroke:#666666;stroke-width:1;" x1="471.709" x2="471.709" y1="397.3906" y2="417.3906"/><polygon fill="#666666" points="467.709,407.3906,471.709,417.3906,475.709,407.3906,471.709,411.3906" style="stroke:#666666;stroke-width:1;"/><line style="stroke:#666666;stroke-width:1;" x1="509.113" x2="471.709" y1="327.4531" y2="327.4531"/><line style="stroke:#666666;stroke-width:1;" x1="471.709" x2="471.709" y1="327.4531" y2="349.4531"/><polygon fill="#666666" points="467.709,339.4531,471.709,349.4531,475.709,339.4531,471.709,343.4531" style="stroke:#666666;stroke-width:1;"/><line style="stroke:#666666;stroke-width:1;" x1="615.1672" x2="652.5713" y1="327.4531" y2="327.4531"/><line style="stroke:#666666;stroke-width:1;" x1="652.5713" x2="652.5713" y1="327.4531" y2="349.4531"/><polygon fill="#666666" points="648.5713,339.4531,652.5713,349.4531,656.5713,339.4531,652.5713,343.4531" style="stroke:#666666;stroke-width:1;"/><line style="stroke:#666666;stroke-width:1;" x1="652.5713" x2="652.5713" y1="383.4219" y2="444.3906"/><line style="stroke:#666666;stroke-width:1;" x1="652.5713" x2="418.8933" y1="444.3906" y2="444.3906"/><line style="stroke:#666666;stroke-width:1;" x1="418.8933" x2="418.8933" y1="444.3906" y2="459.3906"/><polygon fill="#666666" points="414.8933,449.3906,418.8933,459.3906,422.8933,449.3906,418.8933,453.3906" style="stroke:#666666;stroke-width:1;"/><line style="stroke:#666666;stroke-width:1;" x1="562.1401" x2="562.1401" y1="281.4844" y2="315.4531"/><polygon fill="#666666" points="558.1401,305.4531,562.1401,315.4531,566.1401,305.4531,562.1401,309.4531" style="stroke:#666666;stroke-width:1;"/><line style="stroke:#666666;stroke-width:1;" x1="364.5664" x2="275.6465" y1="225.5156" y2="225.5156"/><line style="stroke:#666666;stroke-width:1;" x1="275.6465" x2="275.6465" y1="225.5156" y2="247.5156"/><polygon fill="#666666" points="271.6465,237.5156,275.6465,247.5156,279.6465,237.5156,275.6465,241.5156" style="stroke:#666666;stroke-width:1;"/><line style="stroke:#666666;stroke-width:1;" x1="473.2202" x2="562.1401" y1="225.5156" y2="225.5156"/><line style="stroke:#666666;stroke-width:1;" x1="562.1401" x2="562.1401" y1="225.5156" y2="247.5156"/><polygon fill="#666666" points="558.1401,237.5156,562.1401,247.5156,566.1401,237.5156,562.1401,241.5156" style="stroke:#666666;stroke-width:1;"/><line style="stroke:#666666;stroke-width:1;" x1="418.8933" x2="418.8933" y1="193.5156" y2="213.5156"/><polygon fill="#666666" points="414.8933,203.5156,418.8933,213.5156,422.8933,203.5156,418.8933,207.5156" style="stroke:#666666;stroke-width:1;"/><line style="stroke:#666666;stroke-width:1;" x1="418.8933" x2="418.8933" y1="493.3594" y2="525.3711"/><polygon fill="#666666" points="414.8933,515.3711,418.8933,525.3711,422.8933,515.3711,418.8933,519.3711" style="stroke:#666666;stroke-width:1;"/><line style="stroke:#666666;stroke-width:1;" x1="418.8933" x2="418.8933" y1="573.3086" y2="612.1719"/><polygon fill="#666666" points="414.8933,602.1719,418.8933,612.1719,422.8933,602.1719,418.8933,606.1719" style="stroke:#666666;stroke-width:1;"/><line style="stroke:#666666;stroke-width:1;" x1="119.7637" x2="119.7637" y1="672.1406" y2="692.1406"/><polygon fill="#666666" points="115.7637,682.1406,119.7637,692.1406,123.7637,682.1406,119.7637,686.1406" style="stroke:#666666;stroke-width:1;"/><line style="stroke:#666666;stroke-width:1;" x1="554.5127" x2="554.5127" y1="672.1406" y2="692.1406"/><polygon fill="#666666" points="550.5127,682.1406,554.5127,692.1406,558.5127,682.1406,554.5127,686.1406" style="stroke:#666666;stroke-width:1;"/><line style="stroke:#666666;stroke-width:1;" x1="119.7637" x2="119.7637" y1="740.0781" y2="760.0781"/><polygon fill="#666666" points="115.7637,750.0781,119.7637,760.0781,123.7637,750.0781,119.7637,754.0781" style="stroke:#666666;stroke-width:1;"/><line style="stroke:#666666;stroke-width:1;" x1="554.5127" x2="554.5127" y1="740.0781" y2="760.0781"/><polygon fill="#666666" points="550.5127,750.0781,554.5127,760.0781,558.5127,750.0781,554.5127,754.0781" style="stroke:#666666;stroke-width:1;"/><line style="stroke:#666666;stroke-width:1;" x1="418.8933" x2="418.8933" y1="646.1406" y2="666.1406"/><polygon fill="#666666" points="414.8933,656.1406,418.8933,666.1406,422.8933,656.1406,418.8933,660.1406" style="stroke:#666666;stroke-width:1;"/><line style="stroke:#666666;stroke-width:1;" x1="418.8933" x2="418.8933" y1="766.0781" y2="786.0781"/><polygon fill="#666666" points="414.8933,776.0781,418.8933,786.0781,422.8933,776.0781,418.8933,780.0781" style="stroke:#666666;stroke-width:1;"/><line style="stroke:#666666;stroke-width:1;" x1="101.6777" x2="101.6777" y1="860.0156" y2="880.0156"/><polygon fill="#666666" points="97.6777,870.0156,101.6777,880.0156,105.6777,870.0156,101.6777,874.0156" style="stroke:#666666;stroke-width:1;"/><line style="stroke:#666666;stroke-width:1;" x1="486.0415" x2="486.0415" y1="860.0156" y2="880.0156"/><polygon fill="#666666" points="482.0415,870.0156,486.0415,880.0156,490.0415,870.0156,486.0415,874.0156" style="stroke:#666666;stroke-width:1;"/><line style="stroke:#666666;stroke-width:1;" x1="101.6777" x2="101.6777" y1="927.9531" y2="947.9531"/><polygon fill="#666666" points="97.6777,937.9531,101.6777,947.9531,105.6777,937.9531,101.6777,941.9531" style="stroke:#666666;stroke-width:1;"/><line style="stroke:#666666;stroke-width:1;" x1="486.0415" x2="486.0415" y1="927.9531" y2="947.9531"/><polygon fill="#666666" points="482.0415,937.9531,486.0415,947.9531,490.0415,937.9531,486.0415,941.9531" style="stroke:#666666;stroke-width:1;"/><line style="stroke:#666666;stroke-width:1;" x1="418.8933" x2="418.8933" y1="834.0156" y2="854.0156"/><polygon fill="#666666" points="414.8933,844.0156,418.8933,854.0156,422.8933,844.0156,418.8933,848.0156" style="stroke:#666666;stroke-width:1;"/><line style="stroke:#666666;stroke-width:1;" x1="418.8933" x2="418.8933" y1="953.9531" y2="973.9531"/><polygon fill="#666666" points="414.8933,963.9531,418.8933,973.9531,422.8933,963.9531,418.8933,967.9531" style="stroke:#666666;stroke-width:1;"/><line style="stroke:#666666;stroke-width:1;" x1="418.8933" x2="418.8933" y1="1021.8906" y2="1041.8906"/><polygon fill="#666666" points="414.8933,1031.8906,418.8933,1041.8906,422.8933,1031.8906,418.8933,1035.8906" style="stroke:#666666;stroke-width:1;"/><!--SRC=[XLHDRnen4BtlhvWg5pWqnnv0LKK8YL0BH8NqGqAApEwmQ-6rjnulXFxwZiTBIgAatSFAicVcpNlpx7UXmXgXCKhRZ7RQDigh6aPvq7iTZbSgtvNUjROOE-CyVAzqmDVYd2_GfvYB3_ATHtdl3cyUTYMkjQgTBVw7E7S1NyPStF0t7cTPqC4Wh7I-mm1ZZofeP-76k4EMKL0-PDdWdj03eIq8QYHI9QxjGOSASbSt1X_1uwyMAGmvTZG5PPKv_aO25khiI6-XDrOME8ASsIFeyAaVOopqVYBrCu31BLhqAd2kHsgS9KPIjaW91AeDphhQjMIEGuwdu9eC3I7qvauAnE9jMJ8YWMlGQbk2WY3qOaPiGkZapcwrh-cfXLGWbL0XODrm2MK2UikQx6CZJUETogkXn0asG4Bl-kTiAQxo76CwKgwCA1fpM42zpT8_6ooFn22WxTxjC3NRJM7RsZpbP9P71rwNLU3ygPKefTzNh8b1JvU1U7-l5U0Zvct0bNEcruyO45CP9esKLKWQSDk-pKFhJoCKYo2pf9TmC_RtsV60jzv3f3SjP3cZiblTURSnp8NQkbR-A7jVqU1UsG2LPgLuywodZdhNCucrPibOApSgQXsfRvtVnOdUDuKOWiqOMjPf2uuxrEonjUtS2Br4Ri7gm4TWXjYFWZ-Z0_2DTMgbMX9wAHMlZaAab-R7b4z5FJQEjFGkiqlTnxP0bV7kStEYRdIw55optO24t1lm9JVfKrBguIziAa5ZHHNoNA5sHMlm73ekH9Kd1TETv4EzrRduR6s30nKbPDcz61Tojejbdvw9kkBfbF5jU9uhZj2MnwroITsqWMySlS9cYJnRnk9BH24XWcW2S2ekavmM_9IfVqXucky1Dr0m-OrJlX0bMIR3ijJu2loguiUihE3pOhvSV9dyU9ZCh-yMq_dgKevda-LoT3jPFjpVNOzMapTK77TlmEbkT0-6QDYoqOVn2NJD7m00]--></g></svg>