<svg xmlns="http://www.w3.org/2000/svg" xmlns:xlink="http://www.w3.org/1999/xlink" contentStyleType="text/css" data-diagram-type="SEQUENCE" height="1177px" preserveAspectRatio="none" style="width:2108px;height:1177px;background:#FFFFFF;" version="1.1" viewBox="0 0 2108 1177" width="2108px" zoomAndPan="magnify"><defs/><g><rect fill="#FFFFFF" height="317.7813" style="stroke:#000000;stroke-width:1;" width="2087.7178" x="15" y="562.9063"/><g><title>User</title><rect fill="#000000" fill-opacity="0.00000" height="971.5" width="8" x="60.4688" y="103.25"/><line style="stroke:#000000;stroke-width:1;" x1="64" x2="64" y1="103.25" y2="1074.75"/></g><g><title>Chatbot OpenAI</title><rect fill="#000000" fill-opacity="0.00000" height="971.5" width="8" x="397.1543" y="103.25"/><line style="stroke:#000000;stroke-width:1;" x1="400.9473" x2="400.9473" y1="103.25" y2="1074.75"/></g><g><title>AI Handler</title><rect fill="#000000" fill-opacity="0.00000" height="971.5" width="8" x="736.6328" y="103.25"/><line style="stroke:#000000;stroke-width:1;" x1="740.3516" x2="740.3516" y1="103.25" y2="1074.75"/></g><g><title>Ticketing System</title><rect fill="#000000" fill-opacity="0.00000" height="971.5" width="8" x="994.5684" y="103.25"/><line style="stroke:#000000;stroke-width:1;" x1="997.9141" x2="997.9141" y1="103.25" y2="1074.75"/></g><g><title>Administrator</title><rect fill="#000000" fill-opacity="0.00000" height="971.5" width="8" x="1826.7646" y="103.25"/><line style="stroke:#000000;stroke-width:1;" x1="1830.4131" x2="1830.4131" y1="103.25" y2="1074.75"/></g><g><title>Database</title><rect fill="#000000" fill-opacity="0.00000" height="971.5" width="8" x="2018.917" y="103.25"/><line style="stroke:#000000;stroke-width:1;" x1="2022.1162" x2="2022.1162" y1="103.25" y2="1074.75"/></g><g class="participant participant-head" data-participant="User"><text fill="#000000" font-family="Verdana" font-size="32" lengthAdjust="spacing" textLength="72.9375" x="25" y="95.7031">User</text><ellipse cx="64.4688" cy="14" fill="#FFFFFF" rx="8" ry="8" style="stroke:#000000;stroke-width:1;"/><path d="M64.4688,22 L64.4688,49 M51.4688,30 L77.4688,30 M64.4688,49 L51.4688,64 M64.4688,49 L77.4688,64" fill="none" style="stroke:#000000;stroke-width:1;"/></g><g class="participant participant-tail" data-participant="User"><text fill="#000000" font-family="Verdana" font-size="32" lengthAdjust="spacing" textLength="72.9375" x="25" y="1103.4531">User</text><ellipse cx="64.4688" cy="1120" fill="#FFFFFF" rx="8" ry="8" style="stroke:#000000;stroke-width:1;"/><path d="M64.4688,1128 L64.4688,1155 M51.4688,1136 L77.4688,1136 M64.4688,1155 L51.4688,1170 M64.4688,1155 L77.4688,1170" fill="none" style="stroke:#000000;stroke-width:1;"/></g><g class="participant participant-head" data-participant="Bot"><rect fill="#FFFFFF" height="46.5938" rx="2.5" ry="2.5" style="stroke:#000000;stroke-width:1;" width="236.4141" x="282.9473" y="55.6563"/><text fill="#000000" font-family="Verdana" font-size="28" lengthAdjust="spacing" textLength="222.4141" x="289.9473" y="88.6465">Chatbot OpenAI</text></g><g class="participant participant-tail" data-participant="Bot"><rect fill="#FFFFFF" height="46.5938" rx="2.5" ry="2.5" style="stroke:#000000;stroke-width:1;" width="236.4141" x="282.9473" y="1073.75"/><text fill="#000000" font-family="Verdana" font-size="28" lengthAdjust="spacing" textLength="222.4141" x="289.9473" y="1106.7402">Chatbot OpenAI</text></g><g class="participant participant-head" data-participant="AIHandler"><rect fill="#FFFFFF" height="46.5938" rx="2.5" ry="2.5" style="stroke:#000000;stroke-width:1;" width="160.5625" x="660.3516" y="55.6563"/><text fill="#000000" font-family="Verdana" font-size="28" lengthAdjust="spacing" textLength="146.5625" x="667.3516" y="88.6465">AI Handler</text></g><g class="participant participant-tail" data-participant="AIHandler"><rect fill="#FFFFFF" height="46.5938" rx="2.5" ry="2.5" style="stroke:#000000;stroke-width:1;" width="160.5625" x="660.3516" y="1073.75"/><text fill="#000000" font-family="Verdana" font-size="28" lengthAdjust="spacing" textLength="146.5625" x="667.3516" y="1106.7402">AI Handler</text></g><g class="participant participant-head" data-participant="TicketSystem"><rect fill="#FFFFFF" height="46.5938" rx="2.5" ry="2.5" style="stroke:#000000;stroke-width:1;" width="255.3086" x="870.9141" y="55.6563"/><text fill="#000000" font-family="Verdana" font-size="28" lengthAdjust="spacing" textLength="241.3086" x="877.9141" y="88.6465">Ticketing System</text></g><g class="participant participant-tail" data-participant="TicketSystem"><rect fill="#FFFFFF" height="46.5938" rx="2.5" ry="2.5" style="stroke:#000000;stroke-width:1;" width="255.3086" x="870.9141" y="1073.75"/><text fill="#000000" font-family="Verdana" font-size="28" lengthAdjust="spacing" textLength="241.3086" x="877.9141" y="1106.7402">Ticketing System</text></g><g class="participant participant-head" data-participant="Admin"><text fill="#000000" font-family="Verdana" font-size="32" lengthAdjust="spacing" textLength="218.7031" x="1718.4131" y="95.7031">Administrator</text><ellipse cx="1830.7646" cy="14" fill="#FFFFFF" rx="8" ry="8" style="stroke:#000000;stroke-width:1;"/><path d="M1830.7646,22 L1830.7646,49 M1817.7646,30 L1843.7646,30 M1830.7646,49 L1817.7646,64 M1830.7646,49 L1843.7646,64" fill="none" style="stroke:#000000;stroke-width:1;"/></g><g class="participant participant-tail" data-participant="Admin"><text fill="#000000" font-family="Verdana" font-size="32" lengthAdjust="spacing" textLength="218.7031" x="1718.4131" y="1103.4531">Administrator</text><ellipse cx="1830.7646" cy="1120" fill="#FFFFFF" rx="8" ry="8" style="stroke:#000000;stroke-width:1;"/><path d="M1830.7646,1128 L1830.7646,1155 M1817.7646,1136 L1843.7646,1136 M1830.7646,1155 L1817.7646,1170 M1830.7646,1155 L1843.7646,1170" fill="none" style="stroke:#000000;stroke-width:1;"/></g><g class="participant participant-head" data-participant="DB"><text fill="#000000" font-family="Verdana" font-size="28" lengthAdjust="spacing" textLength="133.6016" x="1953.1162" y="96.6465">Database</text><path d="M2004.917,34.6563 C2004.917,24.6563 2022.917,24.6563 2022.917,24.6563 C2022.917,24.6563 2040.917,24.6563 2040.917,34.6563 L2040.917,60.6563 C2040.917,70.6563 2022.917,70.6563 2022.917,70.6563 C2022.917,70.6563 2004.917,70.6563 2004.917,60.6563 L2004.917,34.6563" fill="#FFFFFF" style="stroke:#000000;stroke-width:1;"/><path d="M2004.917,34.6563 C2004.917,44.6563 2022.917,44.6563 2022.917,44.6563 C2022.917,44.6563 2040.917,44.6563 2040.917,34.6563" fill="none" style="stroke:#000000;stroke-width:1;"/></g><g class="participant participant-tail" data-participant="DB"><text fill="#000000" font-family="Verdana" font-size="28" lengthAdjust="spacing" textLength="133.6016" x="1953.1162" y="1099.7402">Database</text><path d="M2004.917,1116.3438 C2004.917,1106.3438 2022.917,1106.3438 2022.917,1106.3438 C2022.917,1106.3438 2040.917,1106.3438 2040.917,1116.3438 L2040.917,1142.3438 C2040.917,1152.3438 2022.917,1152.3438 2022.917,1152.3438 C2022.917,1152.3438 2004.917,1152.3438 2004.917,1142.3438 L2004.917,1116.3438" fill="#FFFFFF" style="stroke:#000000;stroke-width:1;"/><path d="M2004.917,1116.3438 C2004.917,1126.3438 2022.917,1126.3438 2022.917,1126.3438 C2022.917,1126.3438 2040.917,1126.3438 2040.917,1116.3438" fill="none" style="stroke:#000000;stroke-width:1;"/></g><g class="message" data-participant-1="User" data-participant-2="Bot"><polygon fill="#000000" points="389.1543,145.5156,399.1543,149.5156,389.1543,153.5156,393.1543,149.5156" style="stroke:#000000;stroke-width:1;"/><line style="stroke:#000000;stroke-width:1;" x1="64.4688" x2="395.1543" y1="149.5156" y2="149.5156"/><text fill="#000000" font-family="Verdana" font-size="26" lengthAdjust="spacing" textLength="305.6016" x="71.4688" y="141.3838">Sends complex request</text></g><g class="message" data-participant-1="Bot" data-participant-2="AIHandler"><polygon fill="#000000" points="728.6328,189.7813,738.6328,193.7813,728.6328,197.7813,732.6328,193.7813" style="stroke:#000000;stroke-width:1;"/><line style="stroke:#000000;stroke-width:1;" x1="401.1543" x2="734.6328" y1="193.7813" y2="193.7813"/><text fill="#000000" font-family="Verdana" font-size="26" lengthAdjust="spacing" textLength="241.1094" x="408.1543" y="185.6494">Analyzes message</text></g><g class="message" data-participant-1="AIHandler" data-participant-2="Bot"><polygon fill="#000000" points="412.1543,234.0469,402.1543,238.0469,412.1543,242.0469,408.1543,238.0469" style="stroke:#000000;stroke-width:1;"/><line style="stroke:#000000;stroke-width:1;stroke-dasharray:2,2;" x1="406.1543" x2="739.6328" y1="238.0469" y2="238.0469"/><text fill="#000000" font-family="Verdana" font-size="26" lengthAdjust="spacing" textLength="315.4785" x="418.1543" y="229.915">Suggests ticket creation</text></g><g class="message" data-participant-1="Bot" data-participant-2="User"><polygon fill="#000000" points="75.4688,278.3125,65.4688,282.3125,75.4688,286.3125,71.4688,282.3125" style="stroke:#000000;stroke-width:1;"/><line style="stroke:#000000;stroke-width:1;stroke-dasharray:2,2;" x1="69.4688" x2="400.1543" y1="282.3125" y2="282.3125"/><text fill="#000000" font-family="Verdana" font-size="26" lengthAdjust="spacing" textLength="277.0244" x="81.4688" y="274.1807">Asks for confirmation</text></g><g class="message" data-participant-1="User" data-participant-2="Bot"><polygon fill="#000000" points="389.1543,322.5781,399.1543,326.5781,389.1543,330.5781,393.1543,326.5781" style="stroke:#000000;stroke-width:1;"/><line style="stroke:#000000;stroke-width:1;" x1="64.4688" x2="395.1543" y1="326.5781" y2="326.5781"/><text fill="#000000" font-family="Verdana" font-size="26" lengthAdjust="spacing" textLength="312.6855" x="71.4688" y="318.4463">Confirms ticket creation</text></g><g class="message" data-participant-1="Bot" data-participant-2="TicketSystem"><polygon fill="#000000" points="986.5684,366.8438,996.5684,370.8438,986.5684,374.8438,990.5684,370.8438" style="stroke:#000000;stroke-width:1;"/><line style="stroke:#000000;stroke-width:1;" x1="401.1543" x2="992.5684" y1="370.8438" y2="370.8438"/><text fill="#000000" font-family="Verdana" font-size="26" lengthAdjust="spacing" textLength="420.2021" x="408.1543" y="362.7119">executeTool("openTicket", args)</text></g><g class="message" data-participant-1="TicketSystem" data-participant-2="DB"><polygon fill="#000000" points="2010.917,411.1094,2020.917,415.1094,2010.917,419.1094,2014.917,415.1094" style="stroke:#000000;stroke-width:1;"/><line style="stroke:#000000;stroke-width:1;" x1="998.5684" x2="2016.917" y1="415.1094" y2="415.1094"/><text fill="#000000" font-family="Verdana" font-size="26" lengthAdjust="spacing" textLength="311.873" x="1005.5684" y="406.9775">sendMessageToAdmin()</text></g><g class="message" data-participant-1="TicketSystem" data-participant-2="Admin"><polygon fill="#000000" points="1818.7646,455.375,1828.7646,459.375,1818.7646,463.375,1822.7646,459.375" style="stroke:#000000;stroke-width:1;"/><line style="stroke:#000000;stroke-width:1;" x1="998.5684" x2="1824.7646" y1="459.375" y2="459.375"/><text fill="#000000" font-family="Verdana" font-size="26" lengthAdjust="spacing" textLength="233.5049" x="1005.5684" y="451.2432">Sends notification</text></g><g class="message" data-participant-1="Bot" data-participant-2="User"><polygon fill="#000000" points="75.4688,499.6406,65.4688,503.6406,75.4688,507.6406,71.4688,503.6406" style="stroke:#000000;stroke-width:1;"/><line style="stroke:#000000;stroke-width:1;stroke-dasharray:2,2;" x1="69.4688" x2="400.1543" y1="503.6406" y2="503.6406"/><text fill="#000000" font-family="Verdana" font-size="26" lengthAdjust="spacing" textLength="303.3545" x="81.4688" y="495.5088">Confirms ticket opened</text></g><g class="message" data-participant-1="Admin" data-participant-2="TicketSystem"><polygon fill="#000000" points="1009.5684,543.9063,999.5684,547.9063,1009.5684,551.9063,1005.5684,547.9063" style="stroke:#000000;stroke-width:1;"/><line style="stroke:#000000;stroke-width:1;" x1="1003.5684" x2="1829.7646" y1="547.9063" y2="547.9063"/><text fill="#000000" font-family="Verdana" font-size="26" lengthAdjust="spacing" textLength="251.9258" x="1015.5684" y="539.7744">Views ticket details</text></g><path d="M15,562.9063 L128.1133,562.9063 L128.1133,587.5 L118.1133,597.5 L15,597.5 L15,562.9063" fill="#FFFFFF" style="stroke:#000000;stroke-width:1;"/><rect fill="none" height="317.7813" style="stroke:#000000;stroke-width:1;" width="2087.7178" x="15" y="562.9063"/><text fill="#000000" font-family="Verdana" font-size="28" font-weight="bold" lengthAdjust="spacing" textLength="68.1133" x="30" y="589.8965">loop</text><text fill="#000000" font-family="Verdana" font-size="28" font-weight="bold" lengthAdjust="spacing" textLength="268.1738" x="143.1133" y="590.8965">[until resolution]</text><g class="message" data-participant-1="Admin" data-participant-2="TicketSystem"><polygon fill="#000000" points="1009.5684,647.3594,999.5684,651.3594,1009.5684,655.3594,1005.5684,651.3594" style="stroke:#000000;stroke-width:1;"/><line style="stroke:#000000;stroke-width:1;" x1="1003.5684" x2="1829.7646" y1="651.3594" y2="651.3594"/><text fill="#000000" font-family="Verdana" font-size="26" lengthAdjust="spacing" textLength="808.1963" x="1015.5684" y="643.2275">sendAdminReplyToUser() or ADMIN_API.ADMIN_REPLY_TICKET</text></g><g class="message" data-participant-1="TicketSystem" data-participant-2="DB"><polygon fill="#000000" points="2010.917,691.625,2020.917,695.625,2010.917,699.625,2014.917,695.625" style="stroke:#000000;stroke-width:1;"/><line style="stroke:#000000;stroke-width:1;" x1="998.5684" x2="2016.917" y1="695.625" y2="695.625"/><text fill="#000000" font-family="Verdana" font-size="26" lengthAdjust="spacing" textLength="300.6631" x="1005.5684" y="687.4932">createAdminMessage()</text></g><g class="message" data-participant-1="TicketSystem" data-participant-2="User"><polygon fill="#000000" points="75.4688,735.8906,65.4688,739.8906,75.4688,743.8906,71.4688,739.8906" style="stroke:#000000;stroke-width:1;"/><line style="stroke:#000000;stroke-width:1;" x1="69.4688" x2="997.5684" y1="739.8906" y2="739.8906"/><text fill="#000000" font-family="Verdana" font-size="26" lengthAdjust="spacing" textLength="318.6777" x="81.4688" y="731.7588">Delivers admin's answer</text></g><g class="message" data-participant-1="User" data-participant-2="TicketSystem"><polygon fill="#000000" points="986.5684,780.1563,996.5684,784.1563,986.5684,788.1563,990.5684,784.1563" style="stroke:#000000;stroke-width:1;"/><line style="stroke:#000000;stroke-width:1;" x1="64.4688" x2="992.5684" y1="784.1563" y2="784.1563"/><text fill="#000000" font-family="Verdana" font-size="26" lengthAdjust="spacing" textLength="454.1494" x="71.4688" y="776.0244">Replies with additional information</text></g><g class="message" data-participant-1="TicketSystem" data-participant-2="DB"><polygon fill="#000000" points="2010.917,824.4219,2020.917,828.4219,2010.917,832.4219,2014.917,828.4219" style="stroke:#000000;stroke-width:1;"/><line style="stroke:#000000;stroke-width:1;" x1="998.5684" x2="2016.917" y1="828.4219" y2="828.4219"/><text fill="#000000" font-family="Verdana" font-size="26" lengthAdjust="spacing" textLength="259.835" x="1005.5684" y="820.29">storeUserMessage()</text></g><g class="message" data-participant-1="TicketSystem" data-participant-2="Admin"><polygon fill="#000000" points="1818.7646,868.6875,1828.7646,872.6875,1818.7646,876.6875,1822.7646,872.6875" style="stroke:#000000;stroke-width:1;"/><line style="stroke:#000000;stroke-width:1;" x1="998.5684" x2="1824.7646" y1="872.6875" y2="872.6875"/><text fill="#000000" font-family="Verdana" font-size="26" lengthAdjust="spacing" textLength="332.084" x="1005.5684" y="864.5557">Forwards user's response</text></g><g class="message" data-participant-1="Admin" data-participant-2="TicketSystem"><polygon fill="#000000" points="1009.5684,919.9531,999.5684,923.9531,1009.5684,927.9531,1005.5684,923.9531" style="stroke:#000000;stroke-width:1;"/><line style="stroke:#000000;stroke-width:1;" x1="1003.5684" x2="1829.7646" y1="923.9531" y2="923.9531"/><text fill="#000000" font-family="Verdana" font-size="26" lengthAdjust="spacing" textLength="165.9023" x="1015.5684" y="915.8213">closeTicket()</text></g><g class="message" data-participant-1="TicketSystem" data-participant-2="DB"><polygon fill="#000000" points="2010.917,964.2188,2020.917,968.2188,2010.917,972.2188,2014.917,968.2188" style="stroke:#000000;stroke-width:1;"/><line style="stroke:#000000;stroke-width:1;" x1="998.5684" x2="2016.917" y1="968.2188" y2="968.2188"/><text fill="#000000" font-family="Verdana" font-size="26" lengthAdjust="spacing" textLength="380.7832" x="1005.5684" y="960.0869">updateTicketStatus("closed")</text></g><g class="message" data-participant-1="TicketSystem" data-participant-2="User"><polygon fill="#000000" points="75.4688,1008.4844,65.4688,1012.4844,75.4688,1016.4844,71.4688,1012.4844" style="stroke:#000000;stroke-width:1;"/><line style="stroke:#000000;stroke-width:1;" x1="69.4688" x2="997.5684" y1="1012.4844" y2="1012.4844"/><text fill="#000000" font-family="Verdana" font-size="26" lengthAdjust="spacing" textLength="289.4404" x="81.4688" y="1004.3525">Confirms ticket closed</text></g><g class="message" data-participant-1="TicketSystem" data-participant-2="Admin"><polygon fill="#000000" points="1818.7646,1052.75,1828.7646,1056.75,1818.7646,1060.75,1822.7646,1056.75" style="stroke:#000000;stroke-width:1;"/><line style="stroke:#000000;stroke-width:1;" x1="998.5684" x2="1824.7646" y1="1056.75" y2="1056.75"/><text fill="#000000" font-family="Verdana" font-size="26" lengthAdjust="spacing" textLength="282.3184" x="1005.5684" y="1048.6182">Notifies ticket closure</text></g><!--SRC=[VLJlRzem4FsUl-AMIIsLrgcbqpJnOL8WROVMTWZOf7wgJ7A0LSVER0Te__gTdH-4DVGBEBvtptVldlt1hZ53o0NZCZ3FNEPCimmcJ5kUy9n9Es5fokKA-XUj-53jwltBYo0uXLWL2u50RB1KqeBXhmXRRjUmJp9eBMMO5a-AIrO8UqCfCvVH_zOAiiGgtOIk-grGlg_lIAxMQhiFVMs5fBAuZtnfHHPgjp-ktQx1lmNA16-rAlBk0sj8p3SyHVq-Q8fBr6xnFcpOgeS0WHS4mjy6TGZCW5i4BIaW7AsPNIWBltAKqTY3XieUOg8n_60o5HL9DAw-3b5pdZoZ6nVCNep5p6FBpNAZhYPACowviPhHPydeTeAKMRPW1Y6CgvKFniCW89qXdAnTy780CLfCB5SIJc2aaRbb21_l-6fjXwB007oZSFxTzJA06ShKGAAoNE0EjDFAM09Hq66QVWOGIIPUNj50XiQmbMDged3Uy1Mh5J4OiBuxIAeQQah2kVE9pZmRShUci-MIwwn67LGtAcDTRFiQspeE07UO51RdIebUg6XoPJZyH2vUcJDAQ-DTVZmSa4baUb_sDLTUybuNr4TgqSZwVCcJxlR-hznLWYd1KgHHymspwCr4JEwc78onFu1x9gcK3Cay9p15aolfHbxEyH65K5kdloldhGH_E6wRWrEqZ0jJAYQKog6GbWiQjL6Yg6e_IkLqyQ4fvk9bhbnplJEWiKNn_VZXAPgCFvUhwVNaxl5fFXxzl9vxnYwP_VpG4rPgUvdVWaiHOnHyWze0Sncdz2_DbkwMo_0_jLaEYtQrSZAgVp7Tm-gwP0Au9ByrHZjY1Bftw6ZVhwyometIMwR92mLbK7swcXJba72bvaUKJOGoM6xH6Lqsk7ATr4Dorvao2jsuu5OZoYDsBd9wC2hscMMsCBtG7vY6NRRkjcoPSFmMF7Z_um6Uwgjx-GS0]--></g></svg>