<svg xmlns="http://www.w3.org/2000/svg" xmlns:xlink="http://www.w3.org/1999/xlink" contentStyleType="text/css" data-diagram-type="CLASS" height="2306px" preserveAspectRatio="none" style="width:1598px;height:2306px;background:#FFFFFF;" version="1.1" viewBox="0 0 1598 2306" width="1598px" zoomAndPan="magnify"><defs/><g><!--class User--><g class="entity" data-entity="User" data-source-line="10" data-uid="ent0002" id="entity_User"><rect fill="#F0F0F0" height="417.0781" rx="2.5" ry="2.5" style="stroke:#181818;stroke-width:0.5;" width="736.1396" x="222.4" y="7"/><ellipse cx="561.8409" cy="25.3125" fill="#ADD1B2" rx="10" ry="10" style="stroke:#181818;stroke-width:1;"/><path d="M564.2315,30.0156 Q563.7472,30.2656 563.2159,30.3906 Q562.7003,30.5156 562.1222,30.5156 Q560.0597,30.5156 558.9659,29.1563 Q557.8878,27.7969 557.8878,25.2188 Q557.8878,22.6406 558.9659,21.2813 Q560.0597,19.9219 562.1222,19.9219 Q562.7003,19.9219 563.2315,20.0469 Q563.7628,20.1719 564.2315,20.4063 L564.2315,22.6563 Q563.7159,22.1719 563.2159,21.9531 Q562.7315,21.7344 562.2159,21.7344 Q561.1065,21.7344 560.544,22.6094 Q559.9815,23.4844 559.9815,25.2188 Q559.9815,26.9375 560.544,27.8281 Q561.1065,28.7031 562.2159,28.7031 Q562.7315,28.7031 563.2159,28.4844 Q563.7159,28.25 564.2315,27.7813 L564.2315,30.0156 Z " fill="#000000"/><text fill="#000000" font-family="sans-serif" font-size="16" font-weight="bold" lengthAdjust="spacing" textLength="41.2578" x="584.8409" y="30.8516">User</text><line style="stroke:#181818;stroke-width:0.5;" x1="223.4" x2="957.5396" y1="43.625" y2="43.625"/><text fill="#000000" font-family="sans-serif" font-size="14" lengthAdjust="spacing" textLength="111.3984" x="232.4" y="64.6201">+user_id: string</text><text fill="#000000" font-family="sans-serif" font-size="14" lengthAdjust="spacing" textLength="144.3271" x="232.4" y="88.917">+telegram_id: string</text><text fill="#000000" font-family="sans-serif" font-size="14" lengthAdjust="spacing" textLength="127.0596" x="232.4" y="113.2139">+thread_id: string</text><text fill="#000000" font-family="sans-serif" font-size="14" lengthAdjust="spacing" textLength="143.6436" x="232.4" y="137.5107">+assistant_id: string</text><text fill="#000000" font-family="sans-serif" font-size="14" lengthAdjust="spacing" textLength="131.3252" x="232.4" y="161.8076">+username: string</text><text fill="#000000" font-family="sans-serif" font-size="14" lengthAdjust="spacing" textLength="158.9082" x="232.4" y="186.1045">+last_time_used: Date</text><text fill="#000000" font-family="sans-serif" font-size="14" lengthAdjust="spacing" textLength="137.7373" x="232.4" y="210.4014">+create_time: Date</text><text fill="#000000" font-family="sans-serif" font-size="14" lengthAdjust="spacing" textLength="142.3174" x="232.4" y="234.6982">+update_time: Date</text><line style="stroke:#181818;stroke-width:0.5;" x1="223.4" x2="957.5396" y1="246" y2="246"/><text fill="#000000" font-family="sans-serif" font-size="14" lengthAdjust="spacing" textLength="246.0322" x="232.4" y="266.9951">+findByUserId(userId: string): User</text><text fill="#000000" font-family="sans-serif" font-size="14" lengthAdjust="spacing" textLength="313.5781" x="232.4" y="291.292">+findByTelegramId(telegramId: string): User</text><text fill="#000000" font-family="sans-serif" font-size="14" lengthAdjust="spacing" textLength="433.2275" x="232.4" y="315.5889">+updateThreadByUserId(userId: string, threadId: string): void</text><text fill="#000000" font-family="sans-serif" font-size="14" lengthAdjust="spacing" textLength="464.3311" x="232.4" y="339.8857">+updateAssistantByUserId(userId: string, assistantId: string): void</text><text fill="#000000" font-family="sans-serif" font-size="14" lengthAdjust="spacing" textLength="365.3945" x="232.4" y="364.1826">+updateLastTimeUsedByUserId(userId: string): void</text><text fill="#000000" font-family="sans-serif" font-size="14" lengthAdjust="spacing" textLength="466.6074" x="232.4" y="388.4795">+updateUsernameByUserId(userId: string, username: string): void</text><text fill="#000000" font-family="sans-serif" font-size="14" lengthAdjust="spacing" textLength="716.1396" x="232.4" y="412.7764">+create(userId: string, threadId: string, assistantId: string, telegramId: string, username: string): User</text></g><!--class Message--><g class="entity" data-entity="Message" data-source-line="29" data-uid="ent0003" id="entity_Message"><rect fill="#F0F0F0" height="514.2656" rx="2.5" ry="2.5" style="stroke:#181818;stroke-width:0.5;" width="670.9385" x="165" y="1502.26"/><ellipse cx="453.0083" cy="1520.5725" fill="#ADD1B2" rx="10" ry="10" style="stroke:#181818;stroke-width:1;"/><path d="M455.3989,1525.2756 Q454.9146,1525.5256 454.3833,1525.6506 Q453.8677,1525.7756 453.2896,1525.7756 Q451.2271,1525.7756 450.1333,1524.4163 Q449.0552,1523.0569 449.0552,1520.4788 Q449.0552,1517.9006 450.1333,1516.5413 Q451.2271,1515.1819 453.2896,1515.1819 Q453.8677,1515.1819 454.3989,1515.3069 Q454.9302,1515.4319 455.3989,1515.6663 L455.3989,1517.9163 Q454.8833,1517.4319 454.3833,1517.2131 Q453.8989,1516.9944 453.3833,1516.9944 Q452.2739,1516.9944 451.7114,1517.8694 Q451.1489,1518.7444 451.1489,1520.4788 Q451.1489,1522.1975 451.7114,1523.0881 Q452.2739,1523.9631 453.3833,1523.9631 Q453.8989,1523.9631 454.3833,1523.7444 Q454.8833,1523.51 455.3989,1523.0413 L455.3989,1525.2756 Z " fill="#000000"/><text fill="#000000" font-family="sans-serif" font-size="16" font-weight="bold" lengthAdjust="spacing" textLength="78.9219" x="476.0083" y="1526.1116">Message</text><line style="stroke:#181818;stroke-width:0.5;" x1="166" x2="834.9385" y1="1538.885" y2="1538.885"/><text fill="#000000" font-family="sans-serif" font-size="14" lengthAdjust="spacing" textLength="88.3135" x="175" y="1559.8801">+id: number</text><text fill="#000000" font-family="sans-serif" font-size="14" lengthAdjust="spacing" textLength="111.3984" x="175" y="1584.177">+user_id: string</text><text fill="#000000" font-family="sans-serif" font-size="14" lengthAdjust="spacing" textLength="143.6436" x="175" y="1608.4739">+assistant_id: string</text><text fill="#000000" font-family="sans-serif" font-size="14" lengthAdjust="spacing" textLength="127.0596" x="175" y="1632.7707">+thread_id: string</text><text fill="#000000" font-family="sans-serif" font-size="14" lengthAdjust="spacing" textLength="124.0039" x="175" y="1657.0676">+message: string</text><text fill="#000000" font-family="sans-serif" font-size="14" lengthAdjust="spacing" textLength="151.0537" x="175" y="1681.3645">+timestamp: number</text><text fill="#000000" font-family="sans-serif" font-size="14" lengthAdjust="spacing" textLength="147.8682" x="175" y="1705.6614">+type: MessageType</text><text fill="#000000" font-family="sans-serif" font-size="14" lengthAdjust="spacing" textLength="153.5488" x="175" y="1729.9582">+ticketOpen: boolean</text><text fill="#000000" font-family="sans-serif" font-size="14" lengthAdjust="spacing" textLength="134.5996" x="175" y="1754.2551">+ticket_id: number</text><text fill="#000000" font-family="sans-serif" font-size="14" lengthAdjust="spacing" textLength="117.5576" x="175" y="1778.552">+datetime: Date</text><text fill="#000000" font-family="sans-serif" font-size="14" lengthAdjust="spacing" textLength="133.2393" x="175" y="1802.8489">+score_id: number</text><text fill="#000000" font-family="sans-serif" font-size="14" lengthAdjust="spacing" textLength="137.7373" x="175" y="1827.1457">+create_time: Date</text><text fill="#000000" font-family="sans-serif" font-size="14" lengthAdjust="spacing" textLength="142.3174" x="175" y="1851.4426">+update_time: Date</text><line style="stroke:#181818;stroke-width:0.5;" x1="166" x2="834.9385" y1="1862.7444" y2="1862.7444"/><text fill="#000000" font-family="sans-serif" font-size="14" lengthAdjust="spacing" textLength="351.4697" x="175" y="1883.7395">+getMessagesByUserId(userId: string): Message[]</text><text fill="#000000" font-family="sans-serif" font-size="14" lengthAdjust="spacing" textLength="531.9932" x="175" y="1908.0364">+create(userId: string, assistantId: string, threadId: string, message: string,</text><text fill="#000000" font-family="sans-serif" font-size="14" lengthAdjust="spacing" textLength="650.9385" x="175" y="1932.3332">timestamp: number, type: MessageType, ticketOpen?: boolean, ticketId?: number): Message</text><text fill="#000000" font-family="sans-serif" font-size="14" lengthAdjust="spacing" textLength="480.6006" x="175" y="1956.6301">+updateTicketStatusByMsgId(msgId: number, status: boolean): void</text><text fill="#000000" font-family="sans-serif" font-size="14" lengthAdjust="spacing" textLength="213.1035" x="175" y="1980.927">+getAllMessages(): Message[]</text><text fill="#000000" font-family="sans-serif" font-size="14" lengthAdjust="spacing" textLength="250.127" x="175" y="2005.2239">+setScoreId(scoreId: number): void</text></g><!--class Assistant--><g class="entity" data-entity="Assistant" data-source-line="53" data-uid="ent0004" id="entity_Assistant"><rect fill="#F0F0F0" height="271.2969" rx="2.5" ry="2.5" style="stroke:#181818;stroke-width:0.5;" width="491.4951" x="685.72" y="484.07"/><ellipse cx="881.5066" cy="502.3825" fill="#ADD1B2" rx="10" ry="10" style="stroke:#181818;stroke-width:1;"/><path d="M883.8972,507.0856 Q883.4129,507.3356 882.8816,507.4606 Q882.366,507.5856 881.7879,507.5856 Q879.7254,507.5856 878.6316,506.2262 Q877.5535,504.8669 877.5535,502.2887 Q877.5535,499.7106 878.6316,498.3512 Q879.7254,496.9919 881.7879,496.9919 Q882.366,496.9919 882.8972,497.1169 Q883.4285,497.2419 883.8972,497.4762 L883.8972,499.7262 Q883.3816,499.2419 882.8816,499.0231 Q882.3972,498.8044 881.8816,498.8044 Q880.7722,498.8044 880.2097,499.6794 Q879.6472,500.5544 879.6472,502.2887 Q879.6472,504.0075 880.2097,504.8981 Q880.7722,505.7731 881.8816,505.7731 Q882.3972,505.7731 882.8816,505.5544 Q883.3816,505.32 883.8972,504.8512 L883.8972,507.0856 Z " fill="#000000"/><text fill="#000000" font-family="sans-serif" font-size="16" font-weight="bold" lengthAdjust="spacing" textLength="83.9219" x="904.5066" y="507.9216">Assistant</text><line style="stroke:#181818;stroke-width:0.5;" x1="686.72" x2="1176.2151" y1="520.695" y2="520.695"/><text fill="#000000" font-family="sans-serif" font-size="14" lengthAdjust="spacing" textLength="73.8623" x="695.72" y="541.6901">+id: string</text><text fill="#000000" font-family="sans-serif" font-size="14" lengthAdjust="spacing" textLength="100.7891" x="695.72" y="565.987">+name: string</text><text fill="#000000" font-family="sans-serif" font-size="14" lengthAdjust="spacing" textLength="104.6787" x="695.72" y="590.2839">+model: string</text><text fill="#000000" font-family="sans-serif" font-size="14" lengthAdjust="spacing" textLength="143.0693" x="695.72" y="614.5807">+instructions: string</text><text fill="#000000" font-family="sans-serif" font-size="14" lengthAdjust="spacing" textLength="95.1973" x="695.72" y="638.8776">+tools: Tool[]</text><line style="stroke:#181818;stroke-width:0.5;" x1="686.72" x2="1176.2151" y1="650.1794" y2="650.1794"/><text fill="#000000" font-family="sans-serif" font-size="14" lengthAdjust="spacing" textLength="471.4951" x="695.72" y="671.1745">+create(name: string, model: string, instructions: string): Assistant</text><text fill="#000000" font-family="sans-serif" font-size="14" lengthAdjust="spacing" textLength="275.7686" x="695.72" y="695.4714">+retrieve(assistantId: string): Assistant</text><text fill="#000000" font-family="sans-serif" font-size="14" lengthAdjust="spacing" textLength="387.9121" x="695.72" y="719.7682">+update(assistantId: string, updates: object): Assistant</text><text fill="#000000" font-family="sans-serif" font-size="14" lengthAdjust="spacing" textLength="230.7061" x="695.72" y="744.0651">+delete(assistantId: string): void</text></g><!--class Thread--><g class="entity" data-entity="Thread" data-source-line="66" data-uid="ent0005" id="entity_Thread"><rect fill="#F0F0F0" height="247" rx="2.5" ry="2.5" style="stroke:#181818;stroke-width:0.5;" width="474.665" x="379.14" y="1195.26"/><ellipse cx="576.8241" cy="1213.5725" fill="#ADD1B2" rx="10" ry="10" style="stroke:#181818;stroke-width:1;"/><path d="M579.2147,1218.2756 Q578.7303,1218.5256 578.1991,1218.6506 Q577.6835,1218.7756 577.1053,1218.7756 Q575.0428,1218.7756 573.9491,1217.4163 Q572.871,1216.0569 572.871,1213.4788 Q572.871,1210.9006 573.9491,1209.5413 Q575.0428,1208.1819 577.1053,1208.1819 Q577.6835,1208.1819 578.2147,1208.3069 Q578.746,1208.4319 579.2147,1208.6663 L579.2147,1210.9163 Q578.6991,1210.4319 578.1991,1210.2131 Q577.7147,1209.9944 577.1991,1209.9944 Q576.0897,1209.9944 575.5272,1210.8694 Q574.9647,1211.7444 574.9647,1213.4788 Q574.9647,1215.1975 575.5272,1216.0881 Q576.0897,1216.9631 577.1991,1216.9631 Q577.7147,1216.9631 578.1991,1216.7444 Q578.6991,1216.51 579.2147,1216.0413 L579.2147,1218.2756 Z " fill="#000000"/><text fill="#000000" font-family="sans-serif" font-size="16" font-weight="bold" lengthAdjust="spacing" textLength="63.2969" x="599.8241" y="1219.1116">Thread</text><line style="stroke:#181818;stroke-width:0.5;" x1="380.14" x2="852.805" y1="1231.885" y2="1231.885"/><text fill="#000000" font-family="sans-serif" font-size="14" lengthAdjust="spacing" textLength="73.8623" x="389.14" y="1252.8801">+id: string</text><text fill="#000000" font-family="sans-serif" font-size="14" lengthAdjust="spacing" textLength="150.2402" x="389.14" y="1277.177">+created_at: number</text><text fill="#000000" font-family="sans-serif" font-size="14" lengthAdjust="spacing" textLength="131.8926" x="389.14" y="1301.4739">+metadata: object</text><line style="stroke:#181818;stroke-width:0.5;" x1="380.14" x2="852.805" y1="1312.7756" y2="1312.7756"/><text fill="#000000" font-family="sans-serif" font-size="14" lengthAdjust="spacing" textLength="253.4219" x="389.14" y="1333.7707">+create(metadata?: object): Thread</text><text fill="#000000" font-family="sans-serif" font-size="14" lengthAdjust="spacing" textLength="244.665" x="389.14" y="1358.0676">+retrieve(threadId: string): Thread</text><text fill="#000000" font-family="sans-serif" font-size="14" lengthAdjust="spacing" textLength="214.1221" x="389.14" y="1382.3645">+delete(threadId: string): void</text><text fill="#000000" font-family="sans-serif" font-size="14" lengthAdjust="spacing" textLength="454.665" x="389.14" y="1406.6614">+addMessage(threadId: string, role: string, content: string): void</text><text fill="#000000" font-family="sans-serif" font-size="14" lengthAdjust="spacing" textLength="301.8887" x="389.14" y="1430.9582">+listMessages(threadId: string): Message[]</text></g><!--class Run--><g class="entity" data-entity="Run" data-source-line="78" data-uid="ent0006" id="entity_Run"><rect fill="#F0F0F0" height="319.8906" rx="2.5" ry="2.5" style="stroke:#181818;stroke-width:0.5;" width="576.8691" x="643.03" y="815.37"/><ellipse cx="905.9138" cy="833.6825" fill="#ADD1B2" rx="10" ry="10" style="stroke:#181818;stroke-width:1;"/><path d="M908.3044,838.3856 Q907.82,838.6356 907.2888,838.7606 Q906.7732,838.8856 906.195,838.8856 Q904.1325,838.8856 903.0388,837.5263 Q901.9607,836.1669 901.9607,833.5888 Q901.9607,831.0106 903.0388,829.6513 Q904.1325,828.2919 906.195,828.2919 Q906.7732,828.2919 907.3044,828.4169 Q907.8357,828.5419 908.3044,828.7763 L908.3044,831.0263 Q907.7888,830.5419 907.2888,830.3231 Q906.8044,830.1044 906.2888,830.1044 Q905.1794,830.1044 904.6169,830.9794 Q904.0544,831.8544 904.0544,833.5888 Q904.0544,835.3075 904.6169,836.1981 Q905.1794,837.0731 906.2888,837.0731 Q906.8044,837.0731 907.2888,836.8544 Q907.7888,836.62 908.3044,836.1513 L908.3044,838.3856 Z " fill="#000000"/><text fill="#000000" font-family="sans-serif" font-size="16" font-weight="bold" lengthAdjust="spacing" textLength="35.1016" x="928.9138" y="839.2216">Run</text><line style="stroke:#181818;stroke-width:0.5;" x1="644.03" x2="1218.8991" y1="851.995" y2="851.995"/><text fill="#000000" font-family="sans-serif" font-size="14" lengthAdjust="spacing" textLength="73.8623" x="653.03" y="872.9901">+id: string</text><text fill="#000000" font-family="sans-serif" font-size="14" lengthAdjust="spacing" textLength="127.0596" x="653.03" y="897.287">+thread_id: string</text><text fill="#000000" font-family="sans-serif" font-size="14" lengthAdjust="spacing" textLength="143.6436" x="653.03" y="921.5839">+assistant_id: string</text><text fill="#000000" font-family="sans-serif" font-size="14" lengthAdjust="spacing" textLength="136.001" x="653.03" y="945.8807">+status: RunStatus</text><text fill="#000000" font-family="sans-serif" font-size="14" lengthAdjust="spacing" textLength="146.7129" x="653.03" y="970.1776">+started_at: number</text><text fill="#000000" font-family="sans-serif" font-size="14" lengthAdjust="spacing" textLength="170.8848" x="653.03" y="994.4745">+completed_at: number</text><text fill="#000000" font-family="sans-serif" font-size="14" lengthAdjust="spacing" textLength="237.6035" x="653.03" y="1018.7714">+required_action: RequiredAction</text><line style="stroke:#181818;stroke-width:0.5;" x1="644.03" x2="1218.8991" y1="1030.0731" y2="1030.0731"/><text fill="#000000" font-family="sans-serif" font-size="14" lengthAdjust="spacing" textLength="494.334" x="653.03" y="1051.0682">+create(threadId: string, assistantId: string, instructions?: string): Run</text><text fill="#000000" font-family="sans-serif" font-size="14" lengthAdjust="spacing" textLength="317.6523" x="653.03" y="1075.3651">+retrieve(threadId: string, runId: string): Run</text><text fill="#000000" font-family="sans-serif" font-size="14" lengthAdjust="spacing" textLength="556.8691" x="653.03" y="1099.662">+submitToolOutputs(threadId: string, runId: string, outputs: ToolOutput[]): Run</text><text fill="#000000" font-family="sans-serif" font-size="14" lengthAdjust="spacing" textLength="307.9863" x="653.03" y="1123.9589">+cancel(threadId: string, runId: string): Run</text></g><!--class Score--><g class="entity" data-entity="Score" data-source-line="94" data-uid="ent0007" id="entity_Score"><rect fill="#F0F0F0" height="222.7031" rx="2.5" ry="2.5" style="stroke:#181818;stroke-width:0.5;" width="465.3818" x="644.78" y="2076.53"/><ellipse cx="844.0998" cy="2094.8425" fill="#ADD1B2" rx="10" ry="10" style="stroke:#181818;stroke-width:1;"/><path d="M846.4904,2099.5456 Q846.0061,2099.7956 845.4748,2099.9206 Q844.9592,2100.0456 844.3811,2100.0456 Q842.3186,2100.0456 841.2248,2098.6863 Q840.1467,2097.3269 840.1467,2094.7488 Q840.1467,2092.1706 841.2248,2090.8113 Q842.3186,2089.4519 844.3811,2089.4519 Q844.9592,2089.4519 845.4904,2089.5769 Q846.0217,2089.7019 846.4904,2089.9363 L846.4904,2092.1863 Q845.9748,2091.7019 845.4748,2091.4831 Q844.9904,2091.2644 844.4748,2091.2644 Q843.3654,2091.2644 842.8029,2092.1394 Q842.2404,2093.0144 842.2404,2094.7488 Q842.2404,2096.4675 842.8029,2097.3581 Q843.3654,2098.2331 844.4748,2098.2331 Q844.9904,2098.2331 845.4748,2098.0144 Q845.9748,2097.78 846.4904,2097.3113 L846.4904,2099.5456 Z " fill="#000000"/><text fill="#000000" font-family="sans-serif" font-size="16" font-weight="bold" lengthAdjust="spacing" textLength="50.7422" x="867.0998" y="2100.3816">Score</text><line style="stroke:#181818;stroke-width:0.5;" x1="645.78" x2="1109.1618" y1="2113.155" y2="2113.155"/><text fill="#000000" font-family="sans-serif" font-size="14" lengthAdjust="spacing" textLength="88.3135" x="654.78" y="2134.1501">+id: number</text><text fill="#000000" font-family="sans-serif" font-size="14" lengthAdjust="spacing" textLength="121.5703" x="654.78" y="2158.447">+question: string</text><text fill="#000000" font-family="sans-serif" font-size="14" lengthAdjust="spacing" textLength="111.6514" x="654.78" y="2182.7439">+answer: string</text><text fill="#000000" font-family="sans-serif" font-size="14" lengthAdjust="spacing" textLength="113.4629" x="654.78" y="2207.0407">+score: number</text><text fill="#000000" font-family="sans-serif" font-size="14" lengthAdjust="spacing" textLength="144.457" x="654.78" y="2231.3376">+relevance: number</text><line style="stroke:#181818;stroke-width:0.5;" x1="645.78" x2="1109.1618" y1="2242.6394" y2="2242.6394"/><text fill="#000000" font-family="sans-serif" font-size="14" lengthAdjust="spacing" textLength="445.3818" x="654.78" y="2263.6345">+create(question: string, answer: string, score: number): Score</text><text fill="#000000" font-family="sans-serif" font-size="14" lengthAdjust="spacing" textLength="289.8301" x="654.78" y="2287.9314">+getRelevanceById(id: number): number</text></g><!--class ToolCall--><g class="entity" data-entity="ToolCall" data-source-line="105" data-uid="ent0008" id="entity_ToolCall"><rect fill="#F0F0F0" height="149.8125" rx="2.5" ry="2.5" style="stroke:#181818;stroke-width:0.5;" width="465.1426" x="959.9" y="1243.85"/><ellipse cx="1148.526" cy="1262.1625" fill="#ADD1B2" rx="10" ry="10" style="stroke:#181818;stroke-width:1;"/><path d="M1150.9166,1266.8656 Q1150.4322,1267.1156 1149.901,1267.2406 Q1149.3854,1267.3656 1148.8072,1267.3656 Q1146.7447,1267.3656 1145.651,1266.0063 Q1144.5729,1264.6469 1144.5729,1262.0688 Q1144.5729,1259.4906 1145.651,1258.1313 Q1146.7447,1256.7719 1148.8072,1256.7719 Q1149.3854,1256.7719 1149.9166,1256.8969 Q1150.4479,1257.0219 1150.9166,1257.2563 L1150.9166,1259.5063 Q1150.401,1259.0219 1149.901,1258.8031 Q1149.4166,1258.5844 1148.901,1258.5844 Q1147.7916,1258.5844 1147.2291,1259.4594 Q1146.6666,1260.3344 1146.6666,1262.0688 Q1146.6666,1263.7875 1147.2291,1264.6781 Q1147.7916,1265.5531 1148.901,1265.5531 Q1149.4166,1265.5531 1149.901,1265.3344 Q1150.401,1265.1 1150.9166,1264.6313 L1150.9166,1266.8656 Z " fill="#000000"/><text fill="#000000" font-family="sans-serif" font-size="16" font-weight="bold" lengthAdjust="spacing" textLength="71.8906" x="1171.526" y="1267.7016">ToolCall</text><line style="stroke:#181818;stroke-width:0.5;" x1="960.9" x2="1424.0426" y1="1280.475" y2="1280.475"/><text fill="#000000" font-family="sans-serif" font-size="14" lengthAdjust="spacing" textLength="73.8623" x="969.9" y="1301.4701">+id: string</text><text fill="#000000" font-family="sans-serif" font-size="14" lengthAdjust="spacing" textLength="138.4004" x="969.9" y="1325.767">+function: Function</text><text fill="#000000" font-family="sans-serif" font-size="14" lengthAdjust="spacing" textLength="92.3604" x="969.9" y="1350.0639">+type: string</text><line style="stroke:#181818;stroke-width:0.5;" x1="960.9" x2="1424.0426" y1="1361.3656" y2="1361.3656"/><text fill="#000000" font-family="sans-serif" font-size="14" lengthAdjust="spacing" textLength="445.1426" x="969.9" y="1382.3607">+executeTool(functionName: string, args: any): Promise&lt;any&gt;</text></g><!--class MessageType--><g class="entity" data-entity="MessageType" data-source-line="114" data-uid="ent0009" id="entity_MessageType"><rect fill="#F0F0F0" height="149.8125" rx="2.5" ry="2.5" style="stroke:#181818;stroke-width:0.5;" width="160.5703" x="420.18" y="2112.97"/><ellipse cx="434.18" cy="2131.2825" fill="#EB937F" rx="10" ry="10" style="stroke:#181818;stroke-width:1;"/><path d="M437.18,2136.2825 L430.8363,2136.2825 L430.8363,2126.0794 L437.18,2126.0794 L437.18,2127.8606 L432.8519,2127.8606 L432.8519,2130.0481 L436.7738,2130.0481 L436.7738,2131.8294 L432.8519,2131.8294 L432.8519,2134.5013 L437.18,2134.5013 L437.18,2136.2825 Z " fill="#000000"/><text fill="#000000" font-family="sans-serif" font-size="16" font-weight="bold" lengthAdjust="spacing" textLength="122.5703" x="451.18" y="2136.8216">MessageType</text><line style="stroke:#181818;stroke-width:0.5;" x1="421.18" x2="579.7503" y1="2149.595" y2="2149.595"/><text fill="#000000" font-family="sans-serif" font-size="14" lengthAdjust="spacing" textLength="31.9102" x="430.18" y="2170.5901">User</text><text fill="#000000" font-family="sans-serif" font-size="14" lengthAdjust="spacing" textLength="27.8428" x="430.18" y="2194.887">GPT</text><text fill="#000000" font-family="sans-serif" font-size="14" lengthAdjust="spacing" textLength="42.3486" x="430.18" y="2219.1839">Ticket</text><text fill="#000000" font-family="sans-serif" font-size="14" lengthAdjust="spacing" textLength="44.8643" x="430.18" y="2243.4807">Admin</text><line style="stroke:#181818;stroke-width:0.5;" x1="421.18" x2="579.7503" y1="2254.7825" y2="2254.7825"/></g><!--class RunStatus--><g class="entity" data-entity="RunStatus" data-source-line="121" data-uid="ent0010" id="entity_RunStatus"><rect fill="#F0F0F0" height="198.4063" rx="2.5" ry="2.5" style="stroke:#181818;stroke-width:0.5;" width="131.6328" x="1459.65" y="1219.56"/><ellipse cx="1473.65" cy="1237.8725" fill="#EB937F" rx="10" ry="10" style="stroke:#181818;stroke-width:1;"/><path d="M1476.65,1242.8725 L1470.3063,1242.8725 L1470.3063,1232.6694 L1476.65,1232.6694 L1476.65,1234.4506 L1472.3219,1234.4506 L1472.3219,1236.6381 L1476.2438,1236.6381 L1476.2438,1238.4194 L1472.3219,1238.4194 L1472.3219,1241.0913 L1476.65,1241.0913 L1476.65,1242.8725 Z " fill="#000000"/><text fill="#000000" font-family="sans-serif" font-size="16" font-weight="bold" lengthAdjust="spacing" textLength="93.6328" x="1490.65" y="1243.4116">RunStatus</text><line style="stroke:#181818;stroke-width:0.5;" x1="1460.65" x2="1590.2828" y1="1256.185" y2="1256.185"/><text fill="#000000" font-family="sans-serif" font-size="14" lengthAdjust="spacing" textLength="74.2793" x="1469.65" y="1277.1801">completed</text><text fill="#000000" font-family="sans-serif" font-size="14" lengthAdjust="spacing" textLength="38.7871" x="1469.65" y="1301.477">failed</text><text fill="#000000" font-family="sans-serif" font-size="14" lengthAdjust="spacing" textLength="80.8145" x="1469.65" y="1325.7739">in_progress</text><text fill="#000000" font-family="sans-serif" font-size="14" lengthAdjust="spacing" textLength="107.7754" x="1469.65" y="1350.0707">requires_action</text><text fill="#000000" font-family="sans-serif" font-size="14" lengthAdjust="spacing" textLength="52.9307" x="1469.65" y="1374.3676">expired</text><text fill="#000000" font-family="sans-serif" font-size="14" lengthAdjust="spacing" textLength="66.7393" x="1469.65" y="1398.6645">cancelled</text><line style="stroke:#181818;stroke-width:0.5;" x1="1460.65" x2="1590.2828" y1="1409.9663" y2="1409.9663"/></g><!--link User to Message--><g class="link" data-entity-1="User" data-entity-2="Message" data-source-line="131" data-uid="lnk11" id="link_User_Message"><path codeLine="131" d="M274.65,424.55 C274.65,704.11 274.65,1193.54 274.65,1495.83" fill="none" id="User-to-Message" style="stroke:#181818;stroke-width:1;"/><polygon fill="#181818" points="274.65,1501.83,278.65,1492.83,274.65,1496.83,270.65,1492.83,274.65,1501.83" style="stroke:#181818;stroke-width:1;"/><text fill="#000000" font-family="sans-serif" font-size="14" lengthAdjust="spacing" textLength="42.4922" x="227.65" y="955.1851">writes</text><text fill="#000000" font-family="sans-serif" font-size="14" lengthAdjust="spacing" textLength="8.9072" x="252.0395" y="448.8019">1</text><text fill="#000000" font-family="sans-serif" font-size="14" lengthAdjust="spacing" textLength="7" x="256.7233" y="1486.8269">*</text></g><!--link User to Thread--><g class="link" data-entity-1="User" data-entity-2="Thread" data-source-line="132" data-uid="lnk12" id="link_User_Thread"><path codeLine="132" d="M511.09,424.34 C511.09,651.88 511.09,1002.35 511.09,1189.15" fill="none" id="User-to-Thread" style="stroke:#181818;stroke-width:1;"/><polygon fill="#181818" points="511.09,1195.15,515.09,1186.15,511.09,1190.15,507.09,1186.15,511.09,1195.15" style="stroke:#181818;stroke-width:1;"/><text fill="#000000" font-family="sans-serif" font-size="14" lengthAdjust="spacing" textLength="36.1826" x="470.09" y="801.7351">owns</text><text fill="#000000" font-family="sans-serif" font-size="14" lengthAdjust="spacing" textLength="8.9072" x="495.9661" y="449.2755">1</text><text fill="#000000" font-family="sans-serif" font-size="14" lengthAdjust="spacing" textLength="8.9072" x="492.2084" y="1179.8904">1</text></g><!--link Thread to Message--><g class="link" data-entity-1="Thread" data-entity-2="Message" data-source-line="133" data-uid="lnk13" id="link_Thread_Message"><path codeLine="133" d="M607.54,1442.67 C607.54,1461.51 607.54,1475.52 607.54,1495.97" fill="none" id="Thread-to-Message" style="stroke:#181818;stroke-width:1;"/><polygon fill="#181818" points="607.54,1501.97,611.54,1492.97,607.54,1496.97,603.54,1492.97,607.54,1501.97" style="stroke:#181818;stroke-width:1;"/><text fill="#000000" font-family="sans-serif" font-size="14" lengthAdjust="spacing" textLength="59.2607" x="612.54" y="1464.3151">contains</text><text fill="#000000" font-family="sans-serif" font-size="14" lengthAdjust="spacing" textLength="8.9072" x="594.6388" y="1467.1058">1</text><text fill="#000000" font-family="sans-serif" font-size="14" lengthAdjust="spacing" textLength="7" x="599.496" y="1486.971">*</text></g><!--link Thread to Run--><g class="link" data-entity-1="Thread" data-entity-2="Run" data-source-line="134" data-uid="lnk14" id="link_Thread_Run"><path codeLine="134" d="M713.29,1194.77 C713.29,1175.56 713.29,1161.48 713.29,1141.6" fill="none" id="Thread-to-Run" style="stroke:#181818;stroke-width:1;"/><polygon fill="#181818" points="713.29,1135.6,709.29,1144.6,713.29,1140.6,717.29,1144.6,713.29,1135.6" style="stroke:#181818;stroke-width:1;"/><text fill="#000000" font-family="sans-serif" font-size="14" lengthAdjust="spacing" textLength="63.4785" x="718.29" y="1157.1851">executes</text><text fill="#000000" font-family="sans-serif" font-size="14" lengthAdjust="spacing" textLength="8.9072" x="706.451" y="1179.9118">1</text><text fill="#000000" font-family="sans-serif" font-size="14" lengthAdjust="spacing" textLength="7" x="692.0641" y="1160.4085">*</text></g><!--link Run to Thread--><g class="link" data-entity-1="Run" data-entity-2="Thread" data-source-line="136" data-uid="lnk16" id="link_Run_Thread"><path codeLine="136" d="M783.55,1135.73 C783.55,1155.56 783.55,1169.59 783.55,1188.76" fill="none" id="Run-to-Thread" style="stroke:#181818;stroke-width:1;"/><polygon fill="#181818" points="783.55,1194.76,787.55,1185.76,783.55,1189.76,779.55,1185.76,783.55,1194.76" style="stroke:#181818;stroke-width:1;"/><text fill="#000000" font-family="sans-serif" font-size="14" lengthAdjust="spacing" textLength="52.6846" x="788.55" y="1183.2351">runs on</text><text fill="#000000" font-family="sans-serif" font-size="14" lengthAdjust="spacing" textLength="7" x="781.6263" y="1160.0051">*</text><text fill="#000000" font-family="sans-serif" font-size="14" lengthAdjust="spacing" textLength="8.9072" x="780.7729" y="1179.9012">1</text></g><!--link Assistant to Run--><g class="link" data-entity-1="Assistant" data-entity-2="Run" data-source-line="135" data-uid="lnk15" id="link_Assistant_Run"><path codeLine="135" d="M931.47,755.68 C931.47,775.09 931.47,789.21 931.47,809.03" fill="none" id="Assistant-to-Run" style="stroke:#181818;stroke-width:1;"/><polygon fill="#181818" points="931.47,815.03,935.47,806.03,931.47,810.03,927.47,806.03,931.47,815.03" style="stroke:#181818;stroke-width:1;"/><text fill="#000000" font-family="sans-serif" font-size="14" lengthAdjust="spacing" textLength="70.0137" x="936.47" y="777.3451">processes</text><text fill="#000000" font-family="sans-serif" font-size="14" lengthAdjust="spacing" textLength="8.9072" x="919.081" y="780.312">1</text><text fill="#000000" font-family="sans-serif" font-size="14" lengthAdjust="spacing" textLength="7" x="920.1304" y="800.2252">*</text></g><!--link Run to ToolCall--><g class="link" data-entity-1="Run" data-entity-2="ToolCall" data-source-line="137" data-uid="lnk17" id="link_Run_ToolCall"><path codeLine="137" d="M1046.57,1135.73 C1046.57,1173.29 1046.57,1205.58 1046.57,1237.37" fill="none" id="Run-to-ToolCall" style="stroke:#181818;stroke-width:1;"/><polygon fill="#181818" points="1046.57,1243.37,1050.57,1234.37,1046.57,1238.37,1042.57,1234.37,1046.57,1243.37" style="stroke:#181818;stroke-width:1;"/><text fill="#000000" font-family="sans-serif" font-size="14" lengthAdjust="spacing" textLength="85.3398" x="956.57" y="1181.5451">may require</text><text fill="#000000" font-family="sans-serif" font-size="14" lengthAdjust="spacing" textLength="8.9072" x="1039.1076" y="1160.0051">1</text><text fill="#000000" font-family="sans-serif" font-size="14" lengthAdjust="spacing" textLength="7" x="1021.9077" y="1228.5955">*</text></g><!--link Run to Score--><g class="link" data-entity-1="Run" data-entity-2="Score" data-source-line="138" data-uid="lnk18" id="link_Run_Score"><path codeLine="138" d="M906.85,1135.71 C906.85,1385.29 906.85,1854.3 906.85,2070.16" fill="none" id="Run-to-Score" style="stroke:#181818;stroke-width:1;"/><polygon fill="#181818" points="906.85,2076.16,910.85,2067.16,906.85,2071.16,902.85,2067.16,906.85,2076.16" style="stroke:#181818;stroke-width:1;"/><text fill="#000000" font-family="sans-serif" font-size="14" lengthAdjust="spacing" textLength="232.2783" x="911.85" y="1597.9251">generates when using file search</text><text fill="#000000" font-family="sans-serif" font-size="14" lengthAdjust="spacing" textLength="8.9072" x="893.3927" y="1160.5235">1</text><text fill="#000000" font-family="sans-serif" font-size="14" lengthAdjust="spacing" textLength="26.7148" x="877.6659" y="2061.2387">0..1</text></g><!--link Message to MessageType--><g class="link" data-entity-1="Message" data-entity-2="MessageType" data-source-line="139" data-uid="lnk19" id="link_Message_MessageType"><path codeLine="139" d="M500.47,2016.99 C500.47,2051.78 500.47,2078.97 500.47,2106.7" fill="none" id="Message-to-MessageType" style="stroke:#181818;stroke-width:1;"/><polygon fill="#181818" points="500.47,2112.7,504.47,2103.7,500.47,2107.7,496.47,2103.7,500.47,2112.7" style="stroke:#181818;stroke-width:1;"/><text fill="#000000" font-family="sans-serif" font-size="14" lengthAdjust="spacing" textLength="29.1279" x="505.47" y="2056.8451">is of</text><text fill="#000000" font-family="sans-serif" font-size="14" lengthAdjust="spacing" textLength="7" x="489.2708" y="2041.1502">*</text><text fill="#000000" font-family="sans-serif" font-size="14" lengthAdjust="spacing" textLength="8.9072" x="487.7748" y="2097.6722">1</text></g><!--link Message to Message--><g class="link" data-entity-1="Message" data-entity-2="Message" data-source-line="140" data-uid="lnk20" id="link_Message_Message"><path codeLine="140" d="M193.7,1501.98 C193.7,1484.26 193.7,1473.23 193.7,1473.23 C193.7,1473.23 147,1473.23 147,1473.23 C147,1473.23 147,2047.23 147,2047.23 C147,2047.23 292.59,2047.23 292.59,2047.23 C292.59,2047.23 292.59,2041.58 292.59,2022.97" fill="none" id="Message-to-Message" style="stroke:#181818;stroke-width:1;"/><polygon fill="#181818" points="292.59,2016.97,288.59,2025.97,292.59,2021.97,296.59,2025.97,292.59,2016.97" style="stroke:#181818;stroke-width:1;"/><text fill="#000000" font-family="sans-serif" font-size="14" lengthAdjust="spacing" textLength="121.3994" x="16" y="1797.4251">relates to (ticket)</text><text fill="#000000" font-family="sans-serif" font-size="14" lengthAdjust="spacing" textLength="7" x="173.3701" y="1486.9813">*</text><text fill="#000000" font-family="sans-serif" font-size="14" lengthAdjust="spacing" textLength="26.7148" x="256.6261" y="2041.1297">0..1</text></g><!--link Message to Score--><g class="link" data-entity-1="Message" data-entity-2="Score" data-source-line="141" data-uid="lnk21" id="link_Message_Score"><path codeLine="141" d="M740.36,2016.99 C740.36,2037.58 740.36,2051.61 740.36,2070.28" fill="none" id="Message-to-Score" style="stroke:#181818;stroke-width:1;"/><polygon fill="#181818" points="740.36,2076.28,744.36,2067.28,740.36,2071.28,736.36,2067.28,740.36,2076.28" style="stroke:#181818;stroke-width:1;"/><text fill="#000000" font-family="sans-serif" font-size="14" lengthAdjust="spacing" textLength="140.4922" x="745.36" y="2038.6351">has relevance score</text><text fill="#000000" font-family="sans-serif" font-size="14" lengthAdjust="spacing" textLength="8.9072" x="734.5316" y="2041.1502">1</text><text fill="#000000" font-family="sans-serif" font-size="14" lengthAdjust="spacing" textLength="26.7148" x="700.5102" y="2061.3664">0..1</text></g><!--link User to Assistant--><g class="link" data-entity-1="User" data-entity-2="Assistant" data-source-line="142" data-uid="lnk22" id="link_User_Assistant"><path codeLine="142" d="M822.13,424.44 C822.13,444.59 822.13,458.65 822.13,477.81" fill="none" id="User-to-Assistant" style="stroke:#181818;stroke-width:1;"/><polygon fill="#181818" points="822.13,483.81,826.13,474.81,822.13,478.81,818.13,474.81,822.13,483.81" style="stroke:#181818;stroke-width:1;"/><text fill="#000000" font-family="sans-serif" font-size="14" lengthAdjust="spacing" textLength="32.0742" x="827.13" y="446.1151">uses</text><text fill="#000000" font-family="sans-serif" font-size="14" lengthAdjust="spacing" textLength="7" x="819.1858" y="449.3791">*</text><text fill="#000000" font-family="sans-serif" font-size="14" lengthAdjust="spacing" textLength="8.9072" x="803.7379" y="468.7245">1</text></g><!--link Assistant to Message--><g class="link" data-entity-1="Assistant" data-entity-2="Message" data-source-line="143" data-uid="lnk23" id="link_Assistant_Message"><path codeLine="143" d="M685.56,620.23 C518.18,620.23 326.89,620.23 326.89,620.23 C326.89,620.23 326.89,1159.95 326.89,1495.97" fill="none" id="Assistant-to-Message" style="stroke:#181818;stroke-width:1;"/><polygon fill="#181818" points="326.89,1501.97,330.89,1492.97,326.89,1496.97,322.89,1492.97,326.89,1501.97" style="stroke:#181818;stroke-width:1;"/><text fill="#000000" font-family="sans-serif" font-size="14" lengthAdjust="spacing" textLength="70.7178" x="251.89" y="873.7551">generates</text><text fill="#000000" font-family="sans-serif" font-size="14" lengthAdjust="spacing" textLength="8.9072" x="664.4515" y="612.8176">1</text><text fill="#000000" font-family="sans-serif" font-size="14" lengthAdjust="spacing" textLength="7" x="310.5142" y="1486.971">*</text></g><!--link Run to RunStatus--><g class="link" data-entity-1="Run" data-entity-2="RunStatus" data-source-line="144" data-uid="lnk24" id="link_Run_RunStatus"><path codeLine="144" d="M1133.24,1135.47 C1133.24,1187.56 1133.24,1232.23 1133.24,1232.23 C1133.24,1232.23 1341.59,1232.23 1453.38,1232.23" fill="none" id="Run-to-RunStatus" style="stroke:#181818;stroke-width:1;"/><polygon fill="#181818" points="1459.38,1232.23,1450.38,1228.23,1454.38,1232.23,1450.38,1236.23,1459.38,1232.23" style="stroke:#181818;stroke-width:1;"/><text fill="#000000" font-family="sans-serif" font-size="14" lengthAdjust="spacing" textLength="24.7461" x="1218.92" y="1224.2251">has</text><text fill="#000000" font-family="sans-serif" font-size="14" lengthAdjust="spacing" textLength="8.9072" x="1130.041" y="1160.2726">1</text><text fill="#000000" font-family="sans-serif" font-size="14" lengthAdjust="spacing" textLength="8.9072" x="1438.8662" y="1213.8494">1</text></g><!--SRC=[bLTRRzis57xNho2yXxbTMYJ0i0UXQE1awn1ilQ1nduh2eALZcOj4ghmayORyznrU958Nkoq2HEJXkNxdGbhTCTvIIHjIr5IfbTQIROs6cqBmM_OlaFDCzImbxAYfzHl1jJkx-3KvTFBnwBVP8tseWMn5NIQdBIrBnYioKNP5YxjA2iFBQr4BINxQdTk_XArc7FIX1IAateii-vdy1GS2N3FDG16zfvgelJ1rIIGqb772kAQ5pfn-yac19FzbXFnYSBLXPKuKniyhIz9GGuL6nkIz15gEYAYCAKsv7j6jMauRI6beMMyqQs23fyZzEzLWwGNgrU1E8j6qvOHewJl6owk3zV-cN1htwMmyorrSaMiT0a5EtIzdkBsjjOllYEupuiCVoDyBLaRvLGV5KHKzM2Uq_8qWhJ5eL74Ypg7Cfm3sKSFZR2GQFFZVZ7RMUMIRm3fhp07zb8NYUmjAqGfy_TcouQRPXanCg_5OXSsMO-DL3_WGJ9HlsjIERPsySsID6yzPt85-tmBFiLD53PH7ycReg8LzMB2g4196N3zKsHNeu90wdlZ0yVdBYTpDPsgIq15MPwXnWXNAZP52Ke_JPGzKHxqfBplPw6tIOuxfLbDjCCYtgi8O6_i_6bJki5USb2e2jAhh3gFb60s5YcqEKANotyGJf-F9pibh8IKK6afY8rZT-8aBAXHdtyMnF6CjZITQ8qgeKmBZk3Q5PeAhGH5YC4XOuySvcsGlrOb9IJMUaJbz64tlfDKZ0Sbm3ylvyJBWzLbOpbQ8FqCpOliF0ZGMHRz07pFImUinz9Dq3a0VSxcXEcsJ1ZH5sxGpFGIeExrCFFCM1j7FpEV85Pm_CSFnAWxLj9osYiHIZ3jy86YyQMUKr0XDNvypncAzzbXzD7mEg1-wRBkMGLs-jG9HJg4kHDDQACPq2LyDavRiYWrr1SBAxOSP-SxB8ItUomG5TFDavX1lmmUu1GbbjWtJjedU6zqQhRubUaQ4P_IjvwK-VuaQ2yeBgB_J0pS-RXa2o7OCvmSrZwncL1v68yHDeRdRxQl1wUhGJNBArGF8GJQj-30tDTnRHnDYaesnLip6G2UEr5GZ1kCS31FrOwVywe23awKpCnYBROqGNjEwdglNdU6XSDw4LRncUovBWaSey9LjTIqxeNU34KXbXVcY_80kV92YOGfUuUwrn_yFz0eaTKML0MxIkybv5bvrVtvOutz_uU1YLJRCfT39z9tY9FgcmFMEijej6D-qKbGIjUCkz8SA_O4KU6njVrXnLqHMwgbxY6FAl8jxrghClRON5mlouiLhidY-w5z0ENcG36VkY0E_OOJYo7l0ECDkNeKTH_Z0d-MoqoKd0NELnSjjoeJ15k2gsEujVU8BDeKY6BnZI1JqXP6JXXuwh8PivozVujAtHaugu3Q9-4lbOGySdupsPz0EaISAg2psMHTUwaUQw9mmT6KtvVDs8Zek4_ONaI1B_qHv5eNcdTjJHVgUyyqJ4fGu4w7CxOlt6BRHaJxa8IuNYwGOdUt_0G00]--></g></svg>