<svg xmlns="http://www.w3.org/2000/svg" xmlns:xlink="http://www.w3.org/1999/xlink" contentStyleType="text/css" data-diagram-type="DESCRIPTION" height="1201px" preserveAspectRatio="none" style="width:2786px;height:1201px;background:#FFFFFF;" version="1.1" viewBox="0 0 2786 1201" width="2786px" zoomAndPan="magnify"><defs/><g><!--cluster Presentation Layer--><g class="cluster" data-entity="Presentation Layer" data-source-line="43" data-uid="ent0002" id="cluster_Presentation Layer"><path d="M8.5,683 L291.3945,683 A3.75,3.75 0 0 1 293.8945,685.5 L300.8945,740.9375 L300.42,740.9375 A2.5,2.5 0 0 1 302.92,743.4375 L302.92,989.5 A2.5,2.5 0 0 1 300.42,992 L8.5,992 A2.5,2.5 0 0 1 6,989.5 L6,685.5 A2.5,2.5 0 0 1 8.5,683" fill="#D5E8D4" style="stroke:#82B366;stroke-width:1.5;"/><line style="stroke:#82B366;stroke-width:1.5;" x1="6" x2="300.8945" y1="740.9375" y2="740.9375"/><text fill="#000000" font-family="sans-serif" font-size="24" font-weight="bold" lengthAdjust="spacing" textLength="257.8945" x="22" y="719.2773">Presentation Layer</text><text fill="#000000" font-family="sans-serif" font-size="24" font-weight="bold" lengthAdjust="spacing" textLength="204.8906" x="56.0147" y="777.2148">&#171;presentation&#187;</text></g><!--cluster Application Layer--><g class="cluster" data-entity="Application Layer" data-source-line="48" data-uid="ent0005" id="cluster_Application Layer"><path d="M441.42,6 L703.1036,6 A3.75,3.75 0 0 1 705.6036,8.5 L712.6036,63.9375 L2471.15,63.9375 A2.5,2.5 0 0 1 2473.65,66.4375 L2473.65,349.5 A2.5,2.5 0 0 1 2471.15,352 L441.42,352 A2.5,2.5 0 0 1 438.92,349.5 L438.92,8.5 A2.5,2.5 0 0 1 441.42,6" fill="#DAE8FC" style="stroke:#6C8EBF;stroke-width:1.5;"/><line style="stroke:#6C8EBF;stroke-width:1.5;" x1="438.92" x2="712.6036" y1="63.9375" y2="63.9375"/><text fill="#000000" font-family="sans-serif" font-size="24" font-weight="bold" lengthAdjust="spacing" textLength="236.6836" x="454.92" y="42.2773">Application Layer</text><text fill="#000000" font-family="sans-serif" font-size="24" font-weight="bold" lengthAdjust="spacing" textLength="181.7109" x="1369.4295" y="100.2148">&#171;application&#187;</text></g><!--cluster Data Layer--><g class="cluster" data-entity="Data Layer" data-source-line="57" data-uid="ent0012" id="cluster_Data Layer"><path d="M2201.35,376 L2373.7367,376 A3.75,3.75 0 0 1 2376.2367,378.5 L2383.2367,433.9375 L2777.2,433.9375 A2.5,2.5 0 0 1 2779.7,436.4375 L2779.7,785.5 A2.5,2.5 0 0 1 2777.2,788 L2201.35,788 A2.5,2.5 0 0 1 2198.85,785.5 L2198.85,378.5 A2.5,2.5 0 0 1 2201.35,376" fill="#FFF2CC" style="stroke:#D6B656;stroke-width:1.5;"/><line style="stroke:#D6B656;stroke-width:1.5;" x1="2198.85" x2="2383.2367" y1="433.9375" y2="433.9375"/><text fill="#000000" font-family="sans-serif" font-size="24" font-weight="bold" lengthAdjust="spacing" textLength="147.3867" x="2214.85" y="412.2773">Data Layer</text><text fill="#000000" font-family="sans-serif" font-size="24" font-weight="bold" lengthAdjust="spacing" textLength="92.0508" x="2447.2496" y="470.2148">&#171;data&#187;</text></g><!--cluster External Services--><g class="cluster" data-entity="External Services" data-source-line="64" data-uid="ent0017" id="cluster_External Services"><path d="M2232.4054,821.4887 C2238.4446,806.6909 2253.3738,803.8917 2262.8934,817.7912 C2271.9765,807.2248 2279.9134,808.4626 2287.9913,818.9874 C2294.5978,805.8832 2304.5322,801.6049 2315.8627,813.7789 C2322.9299,803.4549 2333.4649,801.9136 2339.9414,814.4024 C2350.1851,799.5106 2361.0483,802.0707 2369.9556,815.8038 C2379.2193,805.3937 2389.4842,805.2222 2396.9039,817.9513 C2406.5083,804.1437 2414.9393,806.5494 2423.5412,818.9695 C2435.6394,808.6004 2448.9375,810.7419 2454.02,827 C2455.6698,825.4809 2457.0943,826.5857 2457.4527,828.3501 C2466.6697,834.3876 2467.772,843.3707 2458.6334,850.3914 C2470.306,857.4086 2470.3954,870.4709 2458.6686,877.5185 C2467.7822,884.8614 2468.3375,894.3019 2457.1929,900.3346 C2468.137,907.5035 2467.4427,914.1685 2457.6031,921.7358 C2471.4827,928.2859 2469.9753,939.4869 2459.6636,947.9395 C2469.147,954.6128 2469.8086,960.8447 2460.5071,968.2963 C2470.2145,975.9277 2471.4965,987.5623 2457.9154,992.7227 C2469.9573,999.9513 2467.672,1010.2728 2457.439,1017.0655 C2467.2146,1022.531 2469.1986,1029.8288 2459.716,1037.446 C2468.8871,1046.4693 2470.1451,1057.1991 2455.8472,1062.6149 C2465.5732,1067.2221 2469.8305,1076.9714 2459.0322,1084.5578 C2470.4114,1091.2565 2468.9046,1103.0807 2458.8036,1109.5832 C2470.113,1117.7864 2468.8904,1130.0123 2454.6215,1133.7979 C2463.3071,1145.8596 2462.5345,1155.7009 2447.02,1161 C2449.2158,1160.2934 2451.1946,1161.5854 2450.681,1164.0894 C2441.0022,1177.0286 2432.5312,1178.1003 2423.1868,1163.7524 C2413.6564,1178.3076 2403.2545,1176.686 2393.6346,1163.8489 C2385.2565,1174.8456 2375.504,1175.4721 2366.6655,1164.4119 C2359.0296,1176.7694 2349.8378,1177.9238 2341.0165,1165.6461 C2334.4968,1177.7897 2323.1915,1179.8384 2315.074,1167.3273 C2306.0923,1179.3756 2298.5694,1178.2434 2290.0964,1166.7868 C2280.9518,1177.6186 2267.9946,1176.6876 2261.6489,1163.4752 C2244.7967,1180.1505 2231.8736,1176.8382 2225.33,1154 C2227.6194,1153.7732 2228.7466,1155.5054 2227.9796,1157.5559 C2217.2213,1149.8722 2215.31,1142.2466 2226.4158,1133.1612 C2214.4541,1126.9121 2214.5658,1117.633 2224.5678,1109.657 C2213.9479,1102.0928 2214.2403,1095.0507 2223.9875,1086.9655 C2213.0139,1079.0475 2214.0814,1072.3127 2224.346,1064.7371 C2212.6818,1056.8232 2212.7263,1047.9907 2222.7882,1038.7732 C2213.4786,1031.0188 2211.8207,1023.2144 2223.3666,1015.9894 C2211.8126,1008.0919 2213.1402,997.886 2224.0828,990.6236 C2212.0033,983.3098 2211.1346,975.3107 2223.2695,967.1576 C2212.4809,961.2484 2212.6959,953.9712 2222.8415,947.6038 C2209.4194,940.3804 2210.8422,928.9131 2223.7875,922.6909 C2215.4965,915.219 2216.3174,905.5777 2226.7829,900.6555 C2214.5689,894.4027 2214.6678,885.5346 2224.0396,876.7995 C2211.955,868.562 2212.4059,857.3882 2226.6341,851.8916 C2215.6736,838.8402 2215.5499,828.0969 2232.33,820 C2233.0134,820.4114 2233.0735,821.0088 2232.4054,821.4887" fill="#F5F5F5" style="stroke:#999999;stroke-width:1;"/><text fill="#000000" font-family="sans-serif" font-size="21" font-weight="bold" lengthAdjust="spacing" textLength="205.96" x="2236.695" y="856.4927">External Services</text></g><!--entity TgBot--><g class="entity" data-entity="TgBot" data-source-line="44" data-uid="ent0003" id="entity_TgBot"><rect fill="#FFFFFF" height="68.4453" rx="2.5" ry="2.5" style="stroke:#666666;stroke-width:0.5;" width="179.2798" x="64.82" y="907.78"/><text fill="#000000" font-family="sans-serif" font-size="21" lengthAdjust="spacing" textLength="135.2798" x="86.82" y="949.2727">TelegramBot</text></g><!--entity WebAdmin--><g class="entity" data-entity="WebAdmin" data-source-line="45" data-uid="ent0004" id="entity_WebAdmin"><rect fill="#FFFFFF" height="68.4453" rx="2.5" ry="2.5" style="stroke:#666666;stroke-width:0.5;" width="232.918" x="38" y="804.78"/><text fill="#000000" font-family="sans-serif" font-size="21" lengthAdjust="spacing" textLength="188.918" x="60" y="846.2727">KonsolexInterface</text></g><!--entity AIHandler--><g class="entity" data-entity="AIHandler" data-source-line="49" data-uid="ent0006" id="entity_AIHandler"><rect fill="#FFFFFF" height="68.4453" rx="2.5" ry="2.5" style="stroke:#666666;stroke-width:0.5;" width="203.3354" x="1849.51" y="221.78"/><text fill="#000000" font-family="sans-serif" font-size="21" lengthAdjust="spacing" textLength="159.3354" x="1871.51" y="263.2727">OpenAIHandler</text></g><!--entity EndpointHandler--><g class="entity" data-entity="EndpointHandler" data-source-line="50" data-uid="ent0007" id="entity_EndpointHandler"><rect fill="#FFFFFF" height="68.4453" rx="2.5" ry="2.5" style="stroke:#666666;stroke-width:0.5;" width="220.1519" x="1358.23" y="164.78"/><text fill="#000000" font-family="sans-serif" font-size="21" lengthAdjust="spacing" textLength="176.1519" x="1380.23" y="206.2727">EndpointHandler</text></g><!--entity Tickets--><g class="entity" data-entity="Tickets" data-source-line="51" data-uid="ent0008" id="entity_Tickets"><rect fill="#FFFFFF" height="68.4453" rx="2.5" ry="2.5" style="stroke:#666666;stroke-width:0.5;" width="218.3062" x="848.8" y="266.78"/><text fill="#000000" font-family="sans-serif" font-size="21" lengthAdjust="spacing" textLength="174.3062" x="870.8" y="308.2727">TicketingSystem</text></g><!--entity WebSrv--><g class="entity" data-entity="WebSrv" data-source-line="52" data-uid="ent0009" id="entity_WebSrv"><rect fill="#FFFFFF" height="68.4453" rx="2.5" ry="2.5" style="stroke:#666666;stroke-width:0.5;" width="159.8794" x="454.92" y="267.78"/><text fill="#000000" font-family="sans-serif" font-size="21" lengthAdjust="spacing" textLength="115.8794" x="476.92" y="309.2727">WebServer</text></g><!--entity AuxFuncs--><g class="entity" data-entity="AuxFuncs" data-source-line="53" data-uid="ent0010" id="entity_AuxFuncs"><rect fill="#FFFFFF" height="68.4453" rx="2.5" ry="2.5" style="stroke:#666666;stroke-width:0.5;" width="236.9478" x="2220.7" y="221.78"/><text fill="#000000" font-family="sans-serif" font-size="21" lengthAdjust="spacing" textLength="192.9478" x="2242.7" y="263.2727">AuxiliaryFunctions</text></g><!--entity TelegramCmd--><g class="entity" data-entity="TelegramCmd" data-source-line="54" data-uid="ent0011" id="entity_TelegramCmd"><rect fill="#FFFFFF" height="68.4453" rx="2.5" ry="2.5" style="stroke:#666666;stroke-width:0.5;" width="334.4111" x="1301.1" y="267.78"/><text fill="#000000" font-family="sans-serif" font-size="21" lengthAdjust="spacing" textLength="290.4111" x="1323.1" y="309.2727">TelegramCommandHandler</text></g><!--entity UserRepo--><g class="entity" data-entity="UserRepo" data-source-line="58" data-uid="ent0013" id="entity_UserRepo"><rect fill="#FFFFFF" height="68.4453" rx="2.5" ry="2.5" style="stroke:#666666;stroke-width:0.5;" width="204.4736" x="2236.94" y="600.78"/><text fill="#000000" font-family="sans-serif" font-size="21" lengthAdjust="spacing" textLength="160.4736" x="2258.94" y="642.2727">UserRepository</text></g><!--entity MsgRepo--><g class="entity" data-entity="MsgRepo" data-source-line="59" data-uid="ent0014" id="entity_MsgRepo"><rect fill="#FFFFFF" height="68.4453" rx="2.5" ry="2.5" style="stroke:#666666;stroke-width:0.5;" width="248.6475" x="2214.85" y="703.78"/><text fill="#000000" font-family="sans-serif" font-size="21" lengthAdjust="spacing" textLength="204.6475" x="2236.85" y="745.2727">MessageRepository</text></g><!--entity ScoreRepo--><g class="entity" data-entity="ScoreRepo" data-source-line="60" data-uid="ent0015" id="entity_ScoreRepo"><rect fill="#FFFFFF" height="68.4453" rx="2.5" ry="2.5" style="stroke:#666666;stroke-width:0.5;" width="215.8862" x="2231.23" y="497.78"/><text fill="#000000" font-family="sans-serif" font-size="21" lengthAdjust="spacing" textLength="171.8862" x="2253.23" y="539.2727">ScoreRepository</text></g><!--entity DB--><g class="entity" data-entity="DB" data-source-line="61" data-uid="ent0016" id="entity_DB"><path d="M2619.5,594.05 C2619.5,584.05 2691.6006,584.05 2691.6006,584.05 C2691.6006,584.05 2763.7012,584.05 2763.7012,594.05 L2763.7012,675.9406 C2763.7012,685.9406 2691.6006,685.9406 2691.6006,685.9406 C2691.6006,685.9406 2619.5,685.9406 2619.5,675.9406 L2619.5,594.05" fill="#F8CECC" style="stroke:#B85450;stroke-width:0.5;"/><path d="M2619.5,594.05 C2619.5,604.05 2691.6006,604.05 2691.6006,604.05 C2691.6006,604.05 2763.7012,604.05 2763.7012,594.05" fill="none" style="stroke:#B85450;stroke-width:0.5;"/><text fill="#000000" font-family="sans-serif" font-size="21" lengthAdjust="spacing" textLength="72.1055" x="2641.5" y="639.5427">MySQL</text><text fill="#000000" font-family="sans-serif" font-size="21" lengthAdjust="spacing" textLength="100.2012" x="2641.5" y="663.988">Database</text></g><!--entity OpenAI--><g class="entity" data-entity="OpenAI" data-source-line="65" data-uid="ent0018" id="entity_OpenAI"><rect fill="#FFFFFF" height="68.4453" rx="2.5" ry="2.5" style="stroke:#666666;stroke-width:0.5;" width="160.5459" x="2258.9" y="878.78"/><text fill="#000000" font-family="sans-serif" font-size="21" lengthAdjust="spacing" textLength="116.5459" x="2280.9" y="920.2727">OpenAI API</text></g><!--entity Konsolex--><g class="entity" data-entity="Konsolex" data-source-line="66" data-uid="ent0019" id="entity_Konsolex"><rect fill="#FFFFFF" height="68.4453" rx="2.5" ry="2.5" style="stroke:#666666;stroke-width:0.5;" width="178.7979" x="2249.77" y="981.78"/><text fill="#000000" font-family="sans-serif" font-size="21" lengthAdjust="spacing" textLength="134.7979" x="2271.77" y="1023.2727">Konsolex API</text></g><!--entity TelegramAPI--><g class="entity" data-entity="TelegramAPI" data-source-line="67" data-uid="ent0020" id="entity_TelegramAPI"><rect fill="#FFFFFF" height="68.4453" rx="2.5" ry="2.5" style="stroke:#666666;stroke-width:0.5;" width="183.689" x="2247.33" y="1084.78"/><text fill="#000000" font-family="sans-serif" font-size="21" lengthAdjust="spacing" textLength="139.689" x="2269.33" y="1126.2727">Telegram API</text></g><!--link TgBot to TelegramCmd--><g class="link" data-entity-1="TgBot" data-entity-2="TelegramCmd" data-source-line="72" data-uid="lnk21" id="link_TgBot_TelegramCmd"><path d="M244.56,914.99 C266.46,907.74 289.7,899.53 310.92,891 C747.53,715.38 1236.3187,437.2555 1403.3787,339.7055" fill="none" id="TgBot-to-TelegramCmd" style="stroke:#444444;stroke-width:1;"/><polygon fill="#444444" points="1408.56,336.68,1398.771,337.764,1404.2422,339.2013,1402.805,344.6725,1408.56,336.68" style="stroke:#444444;stroke-width:1;"/><text fill="#000000" font-family="sans-serif" font-size="18" lengthAdjust="spacing" textLength="99.2197" x="682.3" y="646.708">commands</text></g><!--link WebAdmin to WebSrv--><g class="link" data-entity-1="WebAdmin" data-entity-2="WebSrv" data-source-line="73" data-uid="lnk22" id="link_WebAdmin_WebSrv"><path d="M179.71,804.59 C247.97,707.71 437.7938,438.3246 506.1138,341.3746" fill="none" id="WebAdmin-to-WebSrv" style="stroke:#444444;stroke-width:1;"/><polygon fill="#444444" points="509.57,336.47,501.116,341.5227,506.6898,340.5571,507.6554,346.131,509.57,336.47" style="stroke:#444444;stroke-width:1;"/><text fill="#000000" font-family="sans-serif" font-size="18" lengthAdjust="spacing" textLength="78.1963" x="331.92" y="444.708">requests</text></g><!--link AIHandler to AuxFuncs--><g class="link" data-entity-1="AIHandler" data-entity-2="AuxFuncs" data-source-line="76" data-uid="lnk23" id="link_AIHandler_AuxFuncs"><path d="M2053.34,256 C2104.61,256 2161.14,256 2214.54,256" fill="none" id="AIHandler-to-AuxFuncs" style="stroke:#444444;stroke-width:1;stroke-dasharray:7,7;"/><polygon fill="#444444" points="2220.54,256,2211.54,252,2215.54,256,2211.54,260,2220.54,256" style="stroke:#444444;stroke-width:1;"/></g><!--link WebSrv to AIHandler--><g class="link" data-entity-1="WebSrv" data-entity-2="AIHandler" data-source-line="77" data-uid="lnk24" id="link_WebSrv_AIHandler"><path d="M587.44,267.37 C604.98,257.05 625.13,246.72 644.8,240 C1063.32,97.07 1194.04,120.7 1635.51,147 C1717.73,151.9 1742.24,140.51 1819.51,169 C1852.12,181.02 1879.8922,199.0074 1904.3422,217.6874" fill="none" id="WebSrv-to-AIHandler" style="stroke:#444444;stroke-width:1;stroke-dasharray:7,7;"/><polygon fill="#444444" points="1909.11,221.33,1904.3868,212.6876,1905.1369,218.2945,1899.53,219.0446,1909.11,221.33" style="stroke:#444444;stroke-width:1;"/></g><!--link WebSrv to Tickets--><g class="link" data-entity-1="WebSrv" data-entity-2="Tickets" data-source-line="78" data-uid="lnk25" id="link_WebSrv_Tickets"><path d="M602.98,267.28 C616.5,261.78 630.84,256.94 644.8,254 C720.47,238.07 742.5,241.38 818.8,254 C835.42,256.75 847.0022,259.4533 863.5122,264.6033" fill="none" id="WebSrv-to-Tickets" style="stroke:#444444;stroke-width:1;stroke-dasharray:7,7;"/><polygon fill="#444444" points="869.24,266.39,861.8394,259.8914,864.4668,264.9011,859.4572,267.5285,869.24,266.39" style="stroke:#444444;stroke-width:1;"/></g><!--reverse link Tickets to WebSrv--><g class="link" data-entity-1="Tickets" data-entity-2="WebSrv" data-source-line="102" data-uid="lnk41" id="link_Tickets_WebSrv"><path d="M842.3748,307.26 C832.3848,307.66 828.4,307.76 818.8,308 C741.49,309.96 722.1,310.13 644.8,308 C635.24,307.74 625.21,307.34 615.27,306.88" fill="none" id="Tickets-backto-WebSrv" style="stroke:#444444;stroke-width:1;stroke-dasharray:7,7;"/><polygon fill="#444444" points="848.37,307.02,839.2172,303.3833,843.374,307.22,839.5372,311.3769,848.37,307.02" style="stroke:#444444;stroke-width:1;"/><text fill="#000000" font-family="sans-serif" font-size="18" lengthAdjust="spacing" textLength="148.4912" x="657.8" y="291.708">manages tickets</text></g><!--link TelegramCmd to AIHandler--><g class="link" data-entity-1="TelegramCmd" data-entity-2="AIHandler" data-source-line="79" data-uid="lnk26" id="link_TelegramCmd_AIHandler"><path d="M1635.81,286.07 C1706.77,279.28 1781.2773,272.1615 1843.0473,266.2515" fill="none" id="TelegramCmd-to-AIHandler" style="stroke:#444444;stroke-width:1;stroke-dasharray:7,7;"/><polygon fill="#444444" points="1849.02,265.68,1839.6799,262.5554,1844.0427,266.1562,1840.4419,270.519,1849.02,265.68" style="stroke:#444444;stroke-width:1;"/></g><!--link TelegramCmd to Tickets--><g class="link" data-entity-1="TelegramCmd" data-entity-2="Tickets" data-source-line="80" data-uid="lnk27" id="link_TelegramCmd_Tickets"><path d="M1300.95,312.11 C1237.18,314.63 1163.75,315.89 1097.1,313 C1087.48,312.58 1083.4862,312.4067 1073.4762,311.7267" fill="none" id="TelegramCmd-to-Tickets" style="stroke:#444444;stroke-width:1;stroke-dasharray:7,7;"/><polygon fill="#444444" points="1067.49,311.32,1076.1982,315.9208,1072.4785,311.6589,1076.7404,307.9392,1067.49,311.32" style="stroke:#444444;stroke-width:1;"/></g><!--reverse link Tickets to TelegramCmd--><g class="link" data-entity-1="Tickets" data-entity-2="TelegramCmd" data-source-line="103" data-uid="lnk42" id="link_Tickets_TelegramCmd"><path d="M1073.38,301.2224 C1141.33,301.3624 1224.25,301.52 1301,301.67" fill="none" id="Tickets-backto-TelegramCmd" style="stroke:#444444;stroke-width:1;stroke-dasharray:7,7;"/><polygon fill="#444444" points="1067.38,301.21,1076.3717,305.2285,1072.38,301.2203,1076.3882,297.2286,1067.38,301.21" style="stroke:#444444;stroke-width:1;"/><text fill="#000000" font-family="sans-serif" font-size="18" lengthAdjust="spacing" textLength="148.4912" x="1110.1" y="285.708">manages tickets</text></g><!--link AIHandler to UserRepo--><g class="link" data-entity-1="AIHandler" data-entity-2="UserRepo" data-source-line="83" data-uid="lnk28" id="link_AIHandler_UserRepo"><path d="M2053.28,259.74 C2100.29,267.14 2152.43,284.59 2182.85,324 C2200.51,346.88 2173.73,560.72 2190.85,584 C2202.32,599.59 2213.3427,608.1156 2231.2427,615.6756" fill="none" id="AIHandler-to-UserRepo" style="stroke:#444444;stroke-width:1;stroke-dasharray:7,7;"/><polygon fill="#444444" points="2236.77,618.01,2230.0354,610.8235,2232.164,616.0647,2226.9228,618.1932,2236.77,618.01" style="stroke:#444444;stroke-width:1;"/></g><!--link AIHandler to MsgRepo--><g class="link" data-entity-1="AIHandler" data-entity-2="MsgRepo" data-source-line="84" data-uid="lnk29" id="link_AIHandler_MsgRepo"><path d="M2013.46,290.71 C2080.11,328.75 2177.9,385.54 2182.85,394 C2199.3,422.11 2171.6,660.73 2190.85,687 C2197.33,695.84 2200.4611,699.8267 2209.5311,705.8867" fill="none" id="AIHandler-to-MsgRepo" style="stroke:#444444;stroke-width:1;stroke-dasharray:7,7;"/><polygon fill="#444444" points="2214.52,709.22,2209.2588,700.8941,2210.3626,706.4423,2204.8144,707.546,2214.52,709.22" style="stroke:#444444;stroke-width:1;"/></g><!--link WebSrv to UserRepo--><g class="link" data-entity-1="WebSrv" data-entity-2="UserRepo" data-source-line="85" data-uid="lnk30" id="link_WebSrv_UserRepo"><path d="M563.4,336.58 C625.29,410.04 783.57,575 956.95,575 C956.95,575 956.95,575 1743.51,575 C1917.45,575 2112.6268,599.8275 2230.7568,617.5975" fill="none" id="WebSrv-to-UserRepo" style="stroke:#444444;stroke-width:1;stroke-dasharray:7,7;"/><polygon fill="#444444" points="2236.69,618.49,2228.3851,613.1957,2231.7456,617.7462,2227.1951,621.1067,2236.69,618.49" style="stroke:#444444;stroke-width:1;"/></g><!--link WebSrv to MsgRepo--><g class="link" data-entity-1="WebSrv" data-entity-2="MsgRepo" data-source-line="86" data-uid="lnk31" id="link_WebSrv_MsgRepo"><path d="M540.47,336.36 C549.74,390.95 576,496.75 644.8,550 C768.59,645.81 1839.5487,711.3963 2208.6587,731.3363" fill="none" id="WebSrv-to-MsgRepo" style="stroke:#444444;stroke-width:1;stroke-dasharray:7,7;"/><polygon fill="#444444" points="2214.65,731.66,2205.8789,727.1803,2209.6573,731.3903,2205.4473,735.1687,2214.65,731.66" style="stroke:#444444;stroke-width:1;"/></g><!--link Tickets to MsgRepo--><g class="link" data-entity-1="Tickets" data-entity-2="MsgRepo" data-source-line="87" data-uid="lnk32" id="link_Tickets_MsgRepo"><path d="M1055.51,335.69 C1218.3,393.69 1558.13,512.68 1849.51,601 C1996.37,645.52 2035.32,648.77 2182.85,691 C2196.53,694.92 2205.0989,697.3997 2219.2889,701.6197" fill="none" id="Tickets-to-MsgRepo" style="stroke:#444444;stroke-width:1;stroke-dasharray:7,7;"/><polygon fill="#444444" points="2225.04,703.33,2217.5536,696.9305,2220.2474,701.9047,2215.2732,704.5986,2225.04,703.33" style="stroke:#444444;stroke-width:1;"/></g><!--link AIHandler to OpenAI--><g class="link" data-entity-1="AIHandler" data-entity-2="OpenAI" data-source-line="90" data-uid="lnk33" id="link_AIHandler_OpenAI"><path d="M2025.72,290.67 C2036.01,298.14 2045.55,306.9 2052.85,317 C2087.83,365.42 2057.49,393.92 2082.85,448 C2113.95,514.32 2158.07,510.07 2182.85,579 C2198.57,622.74 2170.52,746.2 2190.85,788 C2209.34,826.01 2240.3448,853.5115 2272.1248,875.0715" fill="none" id="AIHandler-to-OpenAI" style="stroke:#008800;stroke-width:1;"/><polygon fill="#008800" points="2277.09,878.44,2271.8878,870.0771,2272.9523,875.6329,2267.3965,876.6974,2277.09,878.44" style="stroke:#008800;stroke-width:1;"/><text fill="#000000" font-family="sans-serif" font-size="18" lengthAdjust="spacing" textLength="74.5049" x="2095.85" y="431.708">API calls</text></g><!--link EndpointHandler to Konsolex--><g class="link" data-entity-1="EndpointHandler" data-entity-2="Konsolex" data-source-line="91" data-uid="lnk34" id="link_EndpointHandler_Konsolex"><path d="M1578.77,229.95 C1597.86,236.09 1617.4,242.87 1635.51,250 C1733.91,288.74 1752.59,311.71 1849.51,354 C1938.37,392.78 1990.48,358.77 2052.85,433 C2096.59,485.05 2056.74,520.23 2082.85,583 C2113.48,656.64 2158.31,656.11 2182.85,732 C2190.82,756.65 2175.46,944.16 2190.85,965 C2205,984.16 2221.1374,994.2841 2243.6874,1001.7941" fill="none" id="EndpointHandler-to-Konsolex" style="stroke:#008800;stroke-width:1;"/><polygon fill="#008800" points="2249.38,1003.69,2242.105,997.0512,2244.6362,1002.1101,2239.5772,1004.6413,2249.38,1003.69" style="stroke:#008800;stroke-width:1;"/><text fill="#000000" font-family="sans-serif" font-size="18" lengthAdjust="spacing" textLength="95.8008" x="1903.68" y="337.708">operations</text></g><!--link EndpointHandler to Konsolex--><g class="link" data-entity-1="EndpointHandler" data-entity-2="Konsolex" data-source-line="106" data-uid="lnk43" id="link_EndpointHandler_Konsolex"><path d="M1578.8,216.03 C1599.73,223.57 1619.94,234.41 1635.51,250 C1667.71,282.22 1641.34,309.39 1665.51,348 C1799.92,562.65 1877.03,588.42 2082.85,736 C2123.9,765.43 2155.99,747.22 2182.85,790 C2193.2,806.48 2179.2,949.41 2190.85,965 C2205.1,984.08 2221.2782,994.1719 2243.8282,1001.6919" fill="none" id="EndpointHandler-to-Konsolex-1" style="stroke:#008800;stroke-width:1;"/><polygon fill="#008800" points="2249.52,1003.59,2242.2476,996.9482,2244.7768,1002.0082,2239.7168,1004.5374,2249.52,1003.59" style="stroke:#008800;stroke-width:1;"/><text fill="#000000" font-family="sans-serif" font-size="18" lengthAdjust="spacing" textLength="95.8008" x="1903.68" y="554.708">operations</text></g><!--link TgBot to TelegramAPI--><g class="link" data-entity-1="TgBot" data-entity-2="TelegramAPI" data-source-line="92" data-uid="lnk35" id="link_TgBot_TelegramAPI"><path d="M175.74,976.6 C202.89,1019.86 255.11,1093.2 318.92,1134 C402.48,1187.43 434.68,1194 533.86,1194 C533.86,1194 533.86,1194 1952.18,1194 C2054.58,1194 2163.7143,1169.8394 2241.3243,1148.5194" fill="none" id="TgBot-to-TelegramAPI" style="stroke:#008800;stroke-width:1;"/><polygon fill="#008800" points="2247.11,1146.93,2237.3719,1145.4569,2242.2886,1148.2545,2239.4911,1153.1712,2247.11,1146.93" style="stroke:#008800;stroke-width:1;"/><text fill="#000000" font-family="sans-serif" font-size="18" lengthAdjust="spacing" textLength="90.2725" x="1139.1" y="1177.708">messages</text></g><!--link TgBot to TelegramAPI--><g class="link" data-entity-1="TgBot" data-entity-2="TelegramAPI" data-source-line="107" data-uid="lnk44" id="link_TgBot_TelegramAPI"><path d="M200.71,976.6 C268.99,1025.25 404.19,1108 533.86,1108 C533.86,1108 533.86,1108 1952.18,1108 C2053.08,1108 2162.7548,1111.5593 2240.9548,1114.6993" fill="none" id="TgBot-to-TelegramAPI-1" style="stroke:#008800;stroke-width:1;"/><polygon fill="#008800" points="2246.95,1114.94,2238.1177,1110.5821,2241.954,1114.7394,2237.7968,1118.5757,2246.95,1114.94" style="stroke:#008800;stroke-width:1;"/><text fill="#000000" font-family="sans-serif" font-size="18" lengthAdjust="spacing" textLength="90.2725" x="1139.1" y="1091.708">messages</text></g><!--link WebSrv to TelegramAPI--><g class="link" data-entity-1="WebSrv" data-entity-2="TelegramAPI" data-source-line="93" data-uid="lnk36" id="link_WebSrv_TelegramAPI"><path d="M540.42,336.49 C553.36,429.89 592.74,685.04 644.8,750 C741.53,870.73 802.25,904 956.95,904 C956.95,904 956.95,904 1952.18,904 C2062.23,904 2115.97,906.61 2182.85,994 C2202.96,1020.27 2170.24,1042.12 2190.85,1068 C2205.02,1085.78 2220.0909,1095.3964 2241.5509,1102.9564" fill="none" id="WebSrv-to-TelegramAPI" style="stroke:#008800;stroke-width:1;"/><polygon fill="#008800" points="2247.21,1104.95,2240.0504,1098.1868,2242.4941,1103.2887,2237.3923,1105.7323,2247.21,1104.95" style="stroke:#008800;stroke-width:1;"/><text fill="#000000" font-family="sans-serif" font-size="18" lengthAdjust="spacing" textLength="110.6016" x="1413.31" y="887.708">notifications</text></g><!--link WebSrv to TelegramAPI--><g class="link" data-entity-1="WebSrv" data-entity-2="TelegramAPI" data-source-line="108" data-uid="lnk45" id="link_WebSrv_TelegramAPI"><path d="M537.89,336.45 C545.2,449.68 573.62,808.02 644.8,895 C739.44,1010.66 807.51,1020 956.95,1020 C956.95,1020 956.95,1020 1952.18,1020 C2009,1020 2146.0648,1058.9873 2241.1348,1088.2073" fill="none" id="WebSrv-to-TelegramAPI-1" style="stroke:#008800;stroke-width:1;"/><polygon fill="#008800" points="2246.87,1089.97,2239.4423,1083.5024,2242.0906,1088.5011,2237.092,1091.1494,2246.87,1089.97" style="stroke:#008800;stroke-width:1;"/><text fill="#000000" font-family="sans-serif" font-size="18" lengthAdjust="spacing" textLength="110.6016" x="1413.31" y="1003.708">notifications</text></g><!--link UserRepo to DB--><g class="link" data-entity-1="UserRepo" data-entity-2="DB" data-source-line="96" data-uid="lnk37" id="link_UserRepo_DB"><path d="M2441.77,635.82 C2487,636.08 2540.91,636.24 2589.5,636 C2599.06,635.95 2603.1402,635.9283 2613.0702,635.8483" fill="none" id="UserRepo-to-DB" style="stroke:#444444;stroke-width:2;"/><polygon fill="#444444" points="2619.07,635.8,2610.0381,631.8726,2614.0702,635.8403,2610.1025,639.8724,2619.07,635.8" style="stroke:#444444;stroke-width:2;"/><text fill="#000000" font-family="sans-serif" font-size="18" lengthAdjust="spacing" textLength="70.0928" x="2506.5" y="619.708">persists</text></g><!--link MsgRepo to DB--><g class="link" data-entity-1="MsgRepo" data-entity-2="DB" data-source-line="97" data-uid="lnk38" id="link_MsgRepo_DB"><path d="M2463.99,722.68 C2504.71,715.54 2549.72,705.34 2589.5,691 C2599.31,687.46 2603.9291,685.7044 2613.6391,680.9144" fill="none" id="MsgRepo-to-DB" style="stroke:#444444;stroke-width:2;"/><polygon fill="#444444" points="2619.02,678.26,2609.179,678.6544,2614.5359,680.472,2612.7183,685.8289,2619.02,678.26" style="stroke:#444444;stroke-width:2;"/><text fill="#000000" font-family="sans-serif" font-size="18" lengthAdjust="spacing" textLength="70.0928" x="2506.5" y="674.708">persists</text></g><!--link ScoreRepo to DB--><g class="link" data-entity-1="ScoreRepo" data-entity-2="DB" data-source-line="98" data-uid="lnk39" id="link_ScoreRepo_DB"><path d="M2447.56,549.45 C2492.13,558.18 2543.97,570.29 2589.5,586 C2599.27,589.37 2603.843,591.0225 2613.653,595.3625" fill="none" id="ScoreRepo-to-DB" style="stroke:#444444;stroke-width:2;"/><polygon fill="#444444" points="2619.14,597.79,2612.5278,590.4908,2614.5675,595.7671,2609.2912,597.8068,2619.14,597.79" style="stroke:#444444;stroke-width:2;"/><text fill="#000000" font-family="sans-serif" font-size="18" lengthAdjust="spacing" textLength="70.0928" x="2506.5" y="543.708">persists</text></g><!--reverse link EndpointHandler to AIHandler--><g class="link" data-entity-1="EndpointHandler" data-entity-2="AIHandler" data-source-line="101" data-uid="lnk40" id="link_EndpointHandler_AIHandler"><path d="M1584.6883,212.6761 C1666.0283,222.3161 1770.22,234.67 1849.42,244.06" fill="none" id="EndpointHandler-backto-AIHandler" style="stroke:#444444;stroke-width:1;stroke-dasharray:7,7;"/><polygon fill="#444444" points="1578.73,211.97,1587.1967,217.0014,1583.6953,212.5585,1588.1382,209.057,1578.73,211.97" style="stroke:#444444;stroke-width:1;"/><text fill="#000000" font-family="sans-serif" font-size="18" lengthAdjust="spacing" textLength="128.9355" x="1678.51" y="206.708">calls functions</text></g><!--link TelegramCmd to TelegramAPI--><g class="link" data-entity-1="TelegramCmd" data-entity-2="TelegramAPI" data-source-line="109" data-uid="lnk46" id="link_TelegramCmd_TelegramAPI"><path d="M1495.88,336.57 C1533.22,384.95 1603.6,475.44 1665.51,551 C1745.44,648.54 1744.96,696.49 1849.51,767 C1978.97,854.31 2088.89,753.29 2182.85,878 C2195.57,894.88 2178.23,1051.05 2190.85,1068 C2204.59,1086.46 2219.7729,1096.3093 2241.5129,1103.8693" fill="none" id="TelegramCmd-to-TelegramAPI" style="stroke:#008800;stroke-width:1;"/><polygon fill="#008800" points="2247.18,1105.84,2239.9931,1099.1058,2242.4574,1104.1977,2237.3655,1106.662,2247.18,1105.84" style="stroke:#008800;stroke-width:1;"/><text fill="#000000" font-family="sans-serif" font-size="18" lengthAdjust="spacing" textLength="99.2197" x="1901.68" y="750.708">commands</text></g><!--SRC=[pLLDR-Cs4BthLn3E8UqXWUF6XXga0Vo96fiFjqxHm-uU66bi4w58bQIIU1VxttT8YJAboBlNAfTevd7cySqR-PJSqhqi365PhkGBP20CIPc2nB0Nq95-PYAdYcOaaLak1QRNPi-1M0GLMmu1v8acprib2v5E9PUAlEwO2VDZfUHhcJgvT4-GND4qPM9BBWP1SBsZgNoruGtbEgoLmeOMt2ma4c9VW0mkkhXsftFaIRTmI5wsITQfYpZiIGrzeXgEDEMoICDKT4h-qK1sKh4l6AQSy5Bh3Gg0MYlAEMfDjtWwuh0nn4YYs7PNJq0AMwHKB95E7diMou3Ixoz4laQ4J9f3kBxE5MYKWjfoDpVaP3QSnxFBBYJDSywI0t0yZnVJBg0LmY8MYyLWwX1IfQ2ED8m7azz6epQgrMmqZUUJHHla6yr6az7Gbd3wEWC-IPv6twAkgNVfuCZYq-o0VTtJBEJdVAHEF9stBqrE9l7mSjXl4RAEE59aQF_QHNvtZotY9zfR1MBQNGNL8-yajYq-FW87QwM9D9y9rUHnY__Pn0SfjEJmjXG6r8OcuDB_mjCupPXeT1iVXd9erfoKw_MGWnWl_wGYvQ1SkVhDfkSYpIKJ9WIqOeunIvx1eAlNUsqWArcxcBPfPBW6zLATjs_gnSR7nHlZZAhzeX1kINJ9e7Yp0HrgCPLPXlr27dKgInjNd-7G3tUkZESkYqki_ePSQcQashiYFcJJTw0rLcWXxlJM0zQ9LErq7KD0RRVUtNxzr-qdCQi2FOkSJIpDqagz-HkEKE2Nn0h34j2zS1val5gwwkLhEFiwvGEXIdNI1_3TDZqbw-NTwdQvMCvdPFfmVp-VFYuVxjUOM2cMuGH8WKAG3PUlclo2TLbAE1EWVusS-yZPsKqeEBcoIsedeYFlFuSfXujf1VyLe77-xhkdW0JcmxD2b9z5x9PAOw1kLzkFd9_V7AnGrNMnsg11qBijvDW4jpF-XEMdc45gt0tGYv1IlUkYTVQnp7p6szRkwKvxwrGyEqzsvFonYc5d3bdN5jAbXPggRXM0w69_qk_7SRzlYrLckxAs8NX_hgFMSZVnjGUlYCpnLy-ryWO9WO7z49kLUwKFTpqA5TAmJUKIDng_GStBcHrAuo_dfSIwBev1_SV0rfvDi2GIrSmQiPBkPx1weNy6H7OVO4ysrRSB1w60byntB7ylvVNv-S6ETe6iuFLnNO_RukermXMpqX7Z_Hs0cllOHaR_hrc6P7zmo7zLlWC0]--></g></svg>