<svg xmlns="http://www.w3.org/2000/svg" xmlns:xlink="http://www.w3.org/1999/xlink" contentStyleType="text/css" data-diagram-type="DESCRIPTION" height="1089px" preserveAspectRatio="none" style="width:2286px;height:1089px;background:#FFFFFF;" version="1.1" viewBox="0 0 2286 1089" width="2286px" zoomAndPan="magnify"><defs/><g><!--cluster AppServer--><g class="cluster" data-entity="AppServer" data-source-line="13" data-uid="ent0002" id="cluster_AppServer"><polygon fill="none" points="69,225.96,79,215.96,465,215.96,465,1062.23,455,1072.23,69,1072.23,69,225.96" style="stroke:#181818;stroke-width:1;"/><line style="stroke:#181818;stroke-width:1;" x1="455" x2="465" y1="225.96" y2="215.96"/><line style="stroke:#181818;stroke-width:1;" x1="69" x2="455" y1="225.96" y2="225.96"/><line style="stroke:#181818;stroke-width:1;" x1="455" x2="455" y1="225.96" y2="1072.23"/><text fill="#000000" font-family="sans-serif" font-size="20" font-weight="bold" lengthAdjust="spacing" textLength="300.5078" x="112.7461" y="257.5245">Node.js Application Server</text></g><!--cluster NodeApp--><g class="cluster" data-entity="NodeApp" data-source-line="14" data-uid="ent0003" id="cluster_NodeApp"><rect fill="none" height="564.81" rx="2.5" ry="2.5" style="stroke:#181818;stroke-width:1;" width="289" x="113" y="467.42"/><polygon fill="none" points="385,472.42,385,486.42,397,486.42,397,478.42,391,472.42,385,472.42" style="stroke:#181818;stroke-width:1;"/><line style="stroke:#181818;stroke-width:1;" x1="391" x2="391" y1="472.42" y2="478.42"/><line style="stroke:#181818;stroke-width:1;" x1="397" x2="391" y1="478.42" y2="478.42"/><text fill="#000000" font-family="sans-serif" font-size="16" font-weight="bold" lengthAdjust="spacing" textLength="175.3984" x="169.8008" y="494.2716">Node.js Application</text></g><!--cluster DBServer--><g class="cluster" data-entity="DBServer" data-source-line="24" data-uid="ent0009" id="cluster_DBServer"><polygon fill="none" points="505,386.58,515,376.58,996,376.58,996,771.16,986,781.16,505,781.16,505,386.58" style="stroke:#181818;stroke-width:1;"/><line style="stroke:#181818;stroke-width:1;" x1="986" x2="996" y1="386.58" y2="376.58"/><line style="stroke:#181818;stroke-width:1;" x1="505" x2="986" y1="386.58" y2="386.58"/><line style="stroke:#181818;stroke-width:1;" x1="986" x2="986" y1="386.58" y2="781.16"/><text fill="#000000" font-family="sans-serif" font-size="20" font-weight="bold" lengthAdjust="spacing" textLength="187.6953" x="652.6523" y="418.1445">Database Server</text></g><!--cluster MySQL--><g class="cluster" data-entity="MySQL" data-source-line="25" data-uid="ent0010" id="cluster_MySQL"><path d="M537,469.58 C537,459.58 746.5,459.58 746.5,459.58 C746.5,459.58 956,459.58 956,469.58 L956,739.16 C956,749.16 746.5,749.16 746.5,749.16 C746.5,749.16 537,749.16 537,739.16 L537,469.58" fill="none" style="stroke:#181818;stroke-width:1;"/><path d="M537,469.58 C537,479.58 746.5,479.58 746.5,479.58 C746.5,479.58 956,479.58 956,469.58" fill="none" style="stroke:#181818;stroke-width:1;"/><text fill="#000000" font-family="sans-serif" font-size="18" font-weight="bold" lengthAdjust="spacing" textLength="171.4395" x="660.7803" y="508.288">MySQL Database</text></g><!--cluster OpenAICloud--><g class="cluster" data-entity="OpenAICloud" data-source-line="34" data-uid="ent0015" id="cluster_OpenAICloud"><path d="M1052.5001,470.6375 C1061.3474,452.2333 1077.6182,452.8423 1087.0805,470.0403 C1094.4883,457.5814 1107.4903,456.623 1116.2318,468.4387 C1123.8191,456.91 1136.74,455.3901 1143.9256,468.8833 C1151.063,452.501 1163.637,451.3818 1173.9502,465.7862 C1182.5547,452.8866 1196.0516,451.3691 1203.2153,467.2513 C1212.5226,452.7027 1229.8621,449.1084 1238.4196,468.0398 C1247.1135,453.0507 1257.3148,451.9656 1268.6864,465.1646 C1276.8627,449.5485 1289.6146,449.9926 1298.0438,464.9215 C1308.0264,451.3096 1319.329,450.1982 1328.1174,466.1369 C1337.6691,451.6851 1347.5214,453.9109 1357.3615,465.8169 C1366.1557,451.6157 1381.5914,449.6863 1389.6699,466.5609 C1401.9766,455.4158 1412.1624,452.9927 1420.0507,471.1429 C1428.3756,459.4861 1442.8866,458.9333 1449.8723,472.713 C1460.9616,460.3271 1477.214,458.6052 1484,477.42 C1487.1187,476.8558 1488.3718,478.8116 1487.5429,481.5963 C1501.5248,490.626 1501.3734,503.9175 1488.5926,513.8191 C1504.0383,520.3769 1506.1006,536.1208 1492.0642,545.8718 C1509.5016,553.7634 1508.8385,567.4931 1494.781,578.0442 C1514.6298,585.988 1516.2575,603.3947 1497.7674,614.4808 C1513.3467,625.3296 1510.589,636.2493 1495.4761,644.7769 C1512.9985,658.3346 1506.6731,674.0189 1488.4662,680.5814 C1504.9041,690.7838 1504.046,702.6748 1487.3198,711.6537 C1502.5957,728.7793 1501.2624,743.747 1477,750.32 C1479.4081,749.6028 1480.6668,750.6163 1480.0534,753.1543 C1470.0774,765.7782 1460.9623,769.1102 1450.6274,753.5287 C1443.4362,771.3978 1429.4598,770.3496 1418.0854,758.0395 C1407.0968,771.4594 1397.0883,771.2154 1387.0027,757.0232 C1379.448,773.2789 1367.9102,772.2779 1356.4763,761.385 C1347.8381,774.1075 1337.275,774.658 1327.4544,762.7799 C1317.9227,775.9817 1307.5574,776.0643 1297.3753,763.5405 C1287.9424,775.5009 1274.9314,776.466 1268.7605,760.2301 C1259.8121,776.1131 1248.9969,777.2023 1237.3029,763.1117 C1227.8338,776.2635 1213.1711,772.5216 1207.3562,759.0078 C1198.504,775.1389 1184.9823,774.3789 1177.2736,757.9513 C1167.7354,774.1674 1154.6012,769.7792 1146.8024,756.174 C1138.024,771.7158 1123.0066,775.2725 1112.0991,758.4576 C1101.8801,769.631 1090.1302,767.9905 1084.928,753.2063 C1069.9489,768.1376 1049.6475,767.0203 1044,743.32 C1044.4348,742.7422 1045.0628,742.7977 1045.323,743.5004 C1032.1235,731.983 1031.1159,718.9427 1048.5583,710.4223 C1032.763,703.7005 1031.1558,693.9257 1043.8676,682.4274 C1025.1755,669.3197 1028.8259,654.1445 1047.3405,644.4381 C1031.4411,635.7105 1030.3199,626.3694 1045.1671,615.345 C1026.0585,605.9477 1027.0965,591.9148 1042.9075,580.268 C1025.5748,570.6869 1028.5823,554.6999 1043.1227,545.315 C1031.2651,533.8017 1032.4728,524.2808 1046.8612,516.1295 C1028.6169,501.9478 1025.0242,480.5978 1051,470.42 C1051.6057,469.8274 1052.1106,469.7392 1052.5001,470.6375" fill="none" style="stroke:#181818;stroke-width:1;"/><text fill="#000000" font-family="sans-serif" font-size="20" font-weight="bold" lengthAdjust="spacing" textLength="152.832" x="1187.584" y="503.9845">OpenAI Cloud</text></g><!--cluster TelegramCloud--><g class="cluster" data-entity="TelegramCloud" data-source-line="40" data-uid="ent0019" id="cluster_TelegramCloud"><path d="M2081.9128,471.3824 C2086.0739,463.6857 2093.2765,465.9586 2096.6486,472.2155 C2100.1153,466.0438 2106.1299,465.3753 2110.5925,471.0426 C2115.3309,462.5799 2122.0236,462.873 2127.5858,470.1534 C2130.3686,463.8886 2136.5572,462.9242 2141.1603,467.9683 C2146.2707,460.2825 2154.2912,460.6972 2157.4674,469.8423 C2160.8322,461.6125 2168.434,462.584 2172.774,468.8098 C2177.704,462.1327 2184.0412,460.533 2188.5985,469.1942 C2192.4359,462.0302 2198.4087,462.0052 2202.281,469.161 C2207.5549,462.7328 2212.6595,462.6565 2217.2652,469.8936 C2221.6156,463.3903 2228.1547,463.1788 2232.1752,470.2558 C2237.9573,462.9041 2244.1622,461.918 2248.7887,471.3965 C2258.217,462.6734 2265.4146,466.5378 2269,477.42 C2269.7393,477.4418 2269.9931,477.7566 2269.7845,478.48 C2275.8187,482.3415 2276.3339,487.1738 2269.8193,491.0701 C2276.1873,495.0569 2275.5058,500.4684 2269.7896,504.4284 C2278.6923,507.4054 2279.3993,514.7808 2272.3889,520.3549 C2278.5294,524.6266 2277.3472,530.832 2270.5965,533.3217 C2276.1211,535.9556 2276.666,541.9147 2271.7277,545.5189 C2278.6405,549.4398 2278.4232,555.0238 2272.2877,559.4685 C2277.2757,563.7585 2277.3666,569.9101 2270.4766,572.5564 C2276.7015,575.6479 2277.1654,582.2297 2271.3241,586.0774 C2276.8144,590.1576 2277.8328,595.5525 2271.1522,599.4764 C2276.9777,609.5261 2275.6796,618.2937 2262,619.37 C2263.4255,619.6316 2263.9257,620.5787 2263.2153,621.876 C2258.1087,630.3266 2253.2309,630.1185 2247.3136,622.6878 C2243.6041,629.4843 2237.3487,630.2528 2232.0775,624.599 C2228.4368,630.7478 2221.6522,632.3494 2217.4721,625.1909 C2213.3858,633.9096 2206.1819,632.9319 2201.5548,625.7316 C2198.2445,632.0933 2193.741,634.4267 2188.1247,628.1898 C2184.3781,636.0148 2177.2769,636.1446 2173.1566,628.5527 C2167.1743,637.5212 2161.775,637.7314 2156.003,628.356 C2150.7031,633.9822 2145.7409,634.5004 2142.0075,626.7207 C2135.5334,634.0839 2130.6483,632.3565 2126.858,624.1151 C2121.5799,630.4171 2114.6359,631.7458 2110.5516,622.8355 C2105.7698,628.3496 2101.1626,627.8735 2097.5039,621.593 C2085.4637,631.2803 2076.0903,626.4608 2073,612.37 C2074.9228,612.0845 2075.6432,612.9759 2075.4296,614.8141 C2067.8149,610.7849 2066.084,606.2129 2073.4515,600.1612 C2065.6598,596.7858 2066.7513,591.9254 2071.7641,586.9185 C2064.9913,583.7338 2064.6152,578.356 2070.2691,573.7595 C2063.5814,570.1877 2062.8134,563.565 2069.6122,559.3772 C2064.2815,556.2409 2063.8801,550.9158 2069.0085,547.2585 C2062.6327,542.8626 2062.353,536.9105 2069.2369,532.7229 C2062.7888,528.5118 2064.3831,522.9729 2070.665,520.2153 C2065.3843,515.6983 2065.9699,509.9469 2071.9299,506.4638 C2065.9553,501.2488 2066.6854,494.4801 2074.2373,491.327 C2064.5987,481.6259 2068.3305,474.2478 2080,470.42 C2080.9715,469.6819 2081.9236,470.1681 2081.9128,471.3824" fill="none" style="stroke:#181818;stroke-width:1;"/><text fill="#000000" font-family="sans-serif" font-size="20" font-weight="bold" lengthAdjust="spacing" textLength="176.9336" x="2082.5332" y="503.9845">Telegram Cloud</text></g><!--cluster KonsolexCloud--><g class="cluster" data-entity="KonsolexCloud" data-source-line="44" data-uid="ent0021" id="cluster_KonsolexCloud"><path d="M1548.3689,409.4836 C1556.0035,394.7683 1569.4393,389.8885 1580.4303,405.9919 C1588.263,386.1627 1606.5107,386.2967 1616.8341,403.5466 C1628.2916,390.6695 1638.5588,390.4278 1646.891,406.7623 C1658.9018,389.1711 1670.8264,387.2783 1683.8615,405.7112 C1694.2395,390.5657 1704.7385,388.5237 1717.2109,403.3835 C1727.4297,388.2806 1738.6041,391.0018 1747.6037,404.6714 C1758.0754,388.0311 1769.758,384.1293 1782.6639,402.2136 C1791.4938,388.8859 1801.1166,388.0698 1811.9204,399.9199 C1822.5058,385.2495 1836.3947,384.6116 1846.7987,400.1294 C1858.0928,384.234 1874.4866,389.5826 1880.4939,405.6949 C1891.5881,385.8948 1902.5315,384.3071 1916.4077,403.1064 C1928.7336,391.183 1938.9767,388.036 1948.3232,406.2604 C1958.0701,392.238 1968.1257,390.0854 1978.3024,405.8275 C1990.8865,388.8342 2009.0481,388.3808 2017,410.42 C2019.4679,409.5788 2020.5804,410.7667 2020.1333,413.205 C2036.1315,423.2315 2037.8771,439.4745 2020.8059,450.1038 C2040.6882,461.1286 2039.2318,475.6893 2021.4543,487.3693 C2041.8512,495.2915 2039.5101,510.6301 2026.4424,523.2098 C2042.1504,531.4813 2041.0587,547.459 2027.3475,556.5297 C2047.1769,564.2591 2047.278,581.4136 2030.6525,592.4932 C2047.2245,605.6016 2046.0498,618.1399 2026.1322,626.3811 C2043.9843,639.8334 2041.5111,651.4578 2025.8458,664.6592 C2043.458,675.3709 2041.5942,693.7711 2023.2204,701.9493 C2039.1983,713.0402 2038.8264,728.9549 2019.4339,736.1273 C2032.622,751.2118 2031.6288,767.8356 2010,774.32 C2013.3685,773.5638 2015.7661,775.7024 2014.1272,779.1899 C2001.3737,797.2387 1987.2657,793.1493 1977.7019,775.8985 C1971.456,790.745 1956.3449,792.8372 1946.8513,779.4468 C1939.4004,793.4312 1924.9566,794.9287 1914.6414,783.0084 C1906.3122,796.3578 1892.7775,797.9181 1882.93,784.8294 C1870.5109,799.2615 1858.5153,795.9598 1850.3573,780.228 C1843.2666,797.3738 1827.8118,796.4858 1817.3531,783.9762 C1806.2473,804.4461 1790.4995,801.6945 1779.0924,784.2805 C1769.0232,799.0128 1759.2453,797.7204 1748.4319,785.1152 C1739.188,802.2554 1722.0569,799.1291 1713.5666,784.2935 C1701.8648,799.0216 1692.6697,796.1562 1684.0239,781.2472 C1675.3851,797.7862 1659.4929,798.1338 1651.9083,780.2632 C1643.158,799.7167 1627.6494,795.6001 1617.1334,782.1279 C1607.6958,795.0363 1591.6906,794.7314 1585.3484,778.7252 C1565.1953,794.4035 1549.6365,793.4571 1540,767.32 C1542.4727,765.8496 1544.7525,767.0447 1544.9347,769.9206 C1530.8359,763.0211 1525.5507,747.7167 1541.5473,737.6574 C1522.1128,727.3754 1522.341,710.69 1542.293,701.214 C1522.7037,689.4555 1520.7437,673.9084 1541.9443,661.789 C1524.581,650.6258 1526.1018,638.6329 1540.0644,625.8319 C1522.5532,617.7145 1519.2967,603.3346 1534.7129,590.2631 C1519.653,577.8009 1522.4891,566.5995 1539.4141,558.9374 C1522.2127,546.7017 1522.1875,535.128 1538.5741,522.1258 C1524.7997,509.6592 1522.7337,494.9396 1542.7889,486.4722 C1525.0522,479.707 1522.8168,462.4871 1538.7707,451.8157 C1518.1444,434.2765 1521.0996,413.0478 1547,403.42 C1550.4407,404.261 1551.3434,407.1942 1548.3689,409.4836" fill="none" style="stroke:#181818;stroke-width:1;"/><text fill="#000000" font-family="sans-serif" font-size="20" font-weight="bold" lengthAdjust="spacing" textLength="207.1191" x="1674.9404" y="436.9845">Konsolex Platform</text></g><!--cluster KonsolexAPI--><g class="cluster" data-entity="KonsolexAPI" data-source-line="45" data-uid="ent0022" id="cluster_KonsolexAPI"><rect fill="none" height="276.9" rx="2.5" ry="2.5" style="stroke:#181818;stroke-width:1;" width="421" x="1564" y="473.42"/><rect fill="none" height="10" style="stroke:#181818;stroke-width:1;" width="15" x="1965" y="478.42"/><rect fill="none" height="2" style="stroke:#181818;stroke-width:1;" width="4" x="1963" y="480.42"/><rect fill="none" height="2" style="stroke:#181818;stroke-width:1;" width="4" x="1963" y="484.42"/><text fill="#000000" font-family="sans-serif" font-size="18" font-weight="bold" lengthAdjust="spacing" textLength="128.3291" x="1710.3354" y="513.128">API Gateway</text></g><!--cluster Clients--><g class="cluster" data-entity="Clients" data-source-line="53" data-uid="ent0027" id="cluster_Clients"><polygon fill="none" points="16,16,26,6,501,6,501,165.96,491,175.96,16,175.96,16,16" style="stroke:#181818;stroke-width:1;"/><line style="stroke:#181818;stroke-width:1;" x1="491" x2="501" y1="16" y2="6"/><line style="stroke:#181818;stroke-width:1;" x1="16" x2="491" y1="16" y2="16"/><line style="stroke:#181818;stroke-width:1;" x1="491" x2="491" y1="16" y2="175.96"/><text fill="#000000" font-family="sans-serif" font-size="20" font-weight="bold" lengthAdjust="spacing" textLength="160.0977" x="174.4512" y="47.5645">Client Devices</text></g><!--entity PM2--><g class="entity" data-entity="PM2" data-source-line="20" data-uid="ent0008" id="entity_PM2"><rect fill="#F1F1F1" height="61.625" rx="2.5" ry="2.5" style="stroke:#181818;stroke-width:0.5;" width="227.5547" x="190.22" y="290.96"/><polygon fill="#F1F1F1" points="400.7747,295.96,400.7747,309.96,412.7747,309.96,412.7747,301.96,406.7747,295.96,400.7747,295.96" style="stroke:#181818;stroke-width:0.5;"/><line style="stroke:#181818;stroke-width:0.5;" x1="406.7747" x2="406.7747" y1="295.96" y2="301.96"/><line style="stroke:#181818;stroke-width:0.5;" x1="412.7747" x2="406.7747" y1="301.96" y2="301.96"/><text fill="#000000" font-family="sans-serif" font-size="16" lengthAdjust="spacing" textLength="177.5547" x="210.22" y="328.8116">pm2 Process Manager</text></g><!--entity TelegramBot--><g class="entity" data-entity="TelegramBot" data-source-line="15" data-uid="ent0004" id="entity_TelegramBot"><rect fill="#F1F1F1" height="70.9531" rx="2.5" ry="2.5" style="stroke:#181818;stroke-width:0.5;" width="175.9541" x="165.02" y="532.42"/><rect fill="#F1F1F1" height="10" style="stroke:#181818;stroke-width:0.5;" width="15" x="320.9741" y="537.42"/><rect fill="#F1F1F1" height="2" style="stroke:#181818;stroke-width:0.5;" width="4" x="318.9741" y="539.42"/><rect fill="#F1F1F1" height="2" style="stroke:#181818;stroke-width:0.5;" width="4" x="318.9741" y="543.42"/><text fill="#000000" font-family="sans-serif" font-size="18" lengthAdjust="spacing" textLength="115.9541" x="190.02" y="579.128">TelegramBot</text></g><!--entity WebServer--><g class="entity" data-entity="WebServer" data-source-line="16" data-uid="ent0005" id="entity_WebServer"><rect fill="#F1F1F1" height="70.9531" rx="2.5" ry="2.5" style="stroke:#181818;stroke-width:0.5;" width="159.3252" x="173.34" y="663.37"/><rect fill="#F1F1F1" height="10" style="stroke:#181818;stroke-width:0.5;" width="15" x="312.6652" y="668.37"/><rect fill="#F1F1F1" height="2" style="stroke:#181818;stroke-width:0.5;" width="4" x="310.6652" y="670.37"/><rect fill="#F1F1F1" height="2" style="stroke:#181818;stroke-width:0.5;" width="4" x="310.6652" y="674.37"/><text fill="#000000" font-family="sans-serif" font-size="18" lengthAdjust="spacing" textLength="99.3252" x="198.34" y="710.078">WebServer</text></g><!--entity OpenAIHandler--><g class="entity" data-entity="OpenAIHandler" data-source-line="17" data-uid="ent0006" id="entity_OpenAIHandler"><rect fill="#F1F1F1" height="70.9531" rx="2.5" ry="2.5" style="stroke:#181818;stroke-width:0.5;" width="196.5732" x="136.71" y="806.32"/><rect fill="#F1F1F1" height="10" style="stroke:#181818;stroke-width:0.5;" width="15" x="313.2832" y="811.32"/><rect fill="#F1F1F1" height="2" style="stroke:#181818;stroke-width:0.5;" width="4" x="311.2832" y="813.32"/><rect fill="#F1F1F1" height="2" style="stroke:#181818;stroke-width:0.5;" width="4" x="311.2832" y="817.32"/><text fill="#000000" font-family="sans-serif" font-size="18" lengthAdjust="spacing" textLength="136.5732" x="161.71" y="853.028">OpenAIHandler</text></g><!--entity EndpointHandler--><g class="entity" data-entity="EndpointHandler" data-source-line="18" data-uid="ent0007" id="entity_EndpointHandler"><rect fill="#F1F1F1" height="70.9531" rx="2.5" ry="2.5" style="stroke:#181818;stroke-width:0.5;" width="210.9873" x="147.51" y="937.28"/><rect fill="#F1F1F1" height="10" style="stroke:#181818;stroke-width:0.5;" width="15" x="338.4973" y="942.28"/><rect fill="#F1F1F1" height="2" style="stroke:#181818;stroke-width:0.5;" width="4" x="336.4973" y="944.28"/><rect fill="#F1F1F1" height="2" style="stroke:#181818;stroke-width:0.5;" width="4" x="336.4973" y="948.28"/><text fill="#000000" font-family="sans-serif" font-size="18" lengthAdjust="spacing" textLength="150.9873" x="172.51" y="983.988">EndpointHandler</text></g><!--entity Users Table--><g class="entity" data-entity="Users Table" data-source-line="26" data-uid="ent0011" id="entity_Users Table"><rect fill="#F1F1F1" height="68.625" rx="2.5" ry="2.5" style="stroke:#181818;stroke-width:0.5;" width="153.9141" x="563.04" y="533.58"/><path d="M614.3447,533.58 L614.3447,538.58 L607.3447,545.58 L563.04,545.58" fill="none" style="stroke:#181818;stroke-width:0.5;"/><text fill="#000000" font-family="sans-serif" font-size="16" lengthAdjust="spacing" textLength="93.9141" x="588.04" y="578.4316">Users Table</text></g><!--entity Messages Table--><g class="entity" data-entity="Messages Table" data-source-line="27" data-uid="ent0012" id="entity_Messages Table"><rect fill="#F1F1F1" height="68.625" rx="2.5" ry="2.5" style="stroke:#181818;stroke-width:0.5;" width="187.5703" x="752.21" y="533.58"/><path d="M814.7334,533.58 L814.7334,538.58 L807.7334,545.58 L752.21,545.58" fill="none" style="stroke:#181818;stroke-width:0.5;"/><text fill="#000000" font-family="sans-serif" font-size="16" lengthAdjust="spacing" textLength="127.5703" x="777.21" y="578.4316">Messages Table</text></g><!--entity Assistants Table--><g class="entity" data-entity="Assistants Table" data-source-line="28" data-uid="ent0013" id="entity_Assistants Table"><rect fill="#F1F1F1" height="68.625" rx="2.5" ry="2.5" style="stroke:#181818;stroke-width:0.5;" width="190.3359" x="552.83" y="664.53"/><path d="M616.2753,664.53 L616.2753,669.53 L609.2753,676.53 L552.83,676.53" fill="none" style="stroke:#181818;stroke-width:0.5;"/><text fill="#000000" font-family="sans-serif" font-size="16" lengthAdjust="spacing" textLength="130.3359" x="577.83" y="709.3816">Assistants Table</text></g><!--entity Scores Table--><g class="entity" data-entity="Scores Table" data-source-line="29" data-uid="ent0014" id="entity_Scores Table"><rect fill="#F1F1F1" height="68.625" rx="2.5" ry="2.5" style="stroke:#181818;stroke-width:0.5;" width="162.6094" x="777.7" y="664.53"/><path d="M831.9031,664.53 L831.9031,669.53 L824.9031,676.53 L777.7,676.53" fill="none" style="stroke:#181818;stroke-width:0.5;"/><text fill="#000000" font-family="sans-serif" font-size="16" lengthAdjust="spacing" textLength="102.6094" x="802.7" y="709.3816">Scores Table</text></g><!--entity GPT4--><g class="entity" data-entity="GPT4" data-source-line="35" data-uid="ent0016" id="entity_GPT4"><rect fill="#F1F1F1" height="70.9531" rx="2.5" ry="2.5" style="stroke:#181818;stroke-width:0.5;" width="147.9434" x="1060.03" y="532.42"/><rect fill="#F1F1F1" height="10" style="stroke:#181818;stroke-width:0.5;" width="15" x="1187.9734" y="537.42"/><rect fill="#F1F1F1" height="2" style="stroke:#181818;stroke-width:0.5;" width="4" x="1185.9734" y="539.42"/><rect fill="#F1F1F1" height="2" style="stroke:#181818;stroke-width:0.5;" width="4" x="1185.9734" y="543.42"/><text fill="#000000" font-family="sans-serif" font-size="18" lengthAdjust="spacing" textLength="87.9434" x="1085.03" y="579.128">GPT-4 API</text></g><!--entity Embeddings--><g class="entity" data-entity="Embeddings" data-source-line="36" data-uid="ent0017" id="entity_Embeddings"><rect fill="#F1F1F1" height="70.9531" rx="2.5" ry="2.5" style="stroke:#181818;stroke-width:0.5;" width="205.6699" x="1243.17" y="532.42"/><rect fill="#F1F1F1" height="10" style="stroke:#181818;stroke-width:0.5;" width="15" x="1428.8399" y="537.42"/><rect fill="#F1F1F1" height="2" style="stroke:#181818;stroke-width:0.5;" width="4" x="1426.8399" y="539.42"/><rect fill="#F1F1F1" height="2" style="stroke:#181818;stroke-width:0.5;" width="4" x="1426.8399" y="543.42"/><text fill="#000000" font-family="sans-serif" font-size="18" lengthAdjust="spacing" textLength="145.6699" x="1268.17" y="579.128">Embeddings API</text></g><!--entity AssistantsAPI--><g class="entity" data-entity="AssistantsAPI" data-source-line="37" data-uid="ent0018" id="entity_AssistantsAPI"><rect fill="#F1F1F1" height="70.9531" rx="2.5" ry="2.5" style="stroke:#181818;stroke-width:0.5;" width="185.5781" x="1060.21" y="663.37"/><rect fill="#F1F1F1" height="10" style="stroke:#181818;stroke-width:0.5;" width="15" x="1225.7881" y="668.37"/><rect fill="#F1F1F1" height="2" style="stroke:#181818;stroke-width:0.5;" width="4" x="1223.7881" y="670.37"/><rect fill="#F1F1F1" height="2" style="stroke:#181818;stroke-width:0.5;" width="4" x="1223.7881" y="674.37"/><text fill="#000000" font-family="sans-serif" font-size="18" lengthAdjust="spacing" textLength="125.5781" x="1085.21" y="710.078">Assistants API</text></g><!--entity TelegramAPI--><g class="entity" data-entity="TelegramAPI" data-source-line="41" data-uid="ent0020" id="entity_TelegramAPI"><rect fill="#F1F1F1" height="70.9531" rx="2.5" ry="2.5" style="stroke:#181818;stroke-width:0.5;" width="124.6172" x="2088.69" y="532.42"/><rect fill="#F1F1F1" height="10" style="stroke:#181818;stroke-width:0.5;" width="15" x="2193.3072" y="537.42"/><rect fill="#F1F1F1" height="2" style="stroke:#181818;stroke-width:0.5;" width="4" x="2191.3072" y="539.42"/><rect fill="#F1F1F1" height="2" style="stroke:#181818;stroke-width:0.5;" width="4" x="2191.3072" y="543.42"/><text fill="#000000" font-family="sans-serif" font-size="18" lengthAdjust="spacing" textLength="64.6172" x="2113.69" y="579.128">Bot API</text></g><!--entity KonsolexAuth--><g class="entity" data-entity="KonsolexAuth" data-source-line="46" data-uid="ent0023" id="entity_KonsolexAuth"><rect fill="#F1F1F1" height="70.9531" rx="2.5" ry="2.5" style="stroke:#181818;stroke-width:0.5;" width="136.3857" x="1592.81" y="532.42"/><rect fill="#F1F1F1" height="10" style="stroke:#181818;stroke-width:0.5;" width="15" x="1709.1957" y="537.42"/><rect fill="#F1F1F1" height="2" style="stroke:#181818;stroke-width:0.5;" width="4" x="1707.1957" y="539.42"/><rect fill="#F1F1F1" height="2" style="stroke:#181818;stroke-width:0.5;" width="4" x="1707.1957" y="543.42"/><text fill="#000000" font-family="sans-serif" font-size="18" lengthAdjust="spacing" textLength="76.3857" x="1617.81" y="579.128">Auth API</text></g><!--entity KonsolexDomains--><g class="entity" data-entity="KonsolexDomains" data-source-line="47" data-uid="ent0024" id="entity_KonsolexDomains"><rect fill="#F1F1F1" height="70.9531" rx="2.5" ry="2.5" style="stroke:#181818;stroke-width:0.5;" width="173.4229" x="1764.29" y="532.42"/><rect fill="#F1F1F1" height="10" style="stroke:#181818;stroke-width:0.5;" width="15" x="1917.7129" y="537.42"/><rect fill="#F1F1F1" height="2" style="stroke:#181818;stroke-width:0.5;" width="4" x="1915.7129" y="539.42"/><rect fill="#F1F1F1" height="2" style="stroke:#181818;stroke-width:0.5;" width="4" x="1915.7129" y="543.42"/><text fill="#000000" font-family="sans-serif" font-size="18" lengthAdjust="spacing" textLength="113.4229" x="1789.29" y="579.128">Domains API</text></g><!--entity KonsolexServers--><g class="entity" data-entity="KonsolexServers" data-source-line="48" data-uid="ent0025" id="entity_KonsolexServers"><rect fill="#F1F1F1" height="70.9531" rx="2.5" ry="2.5" style="stroke:#181818;stroke-width:0.5;" width="162.6035" x="1579.7" y="663.37"/><rect fill="#F1F1F1" height="10" style="stroke:#181818;stroke-width:0.5;" width="15" x="1722.3035" y="668.37"/><rect fill="#F1F1F1" height="2" style="stroke:#181818;stroke-width:0.5;" width="4" x="1720.3035" y="670.37"/><rect fill="#F1F1F1" height="2" style="stroke:#181818;stroke-width:0.5;" width="4" x="1720.3035" y="674.37"/><text fill="#000000" font-family="sans-serif" font-size="18" lengthAdjust="spacing" textLength="102.6035" x="1604.7" y="710.078">Servers API</text></g><!--entity KonsolexContainers--><g class="entity" data-entity="KonsolexContainers" data-source-line="49" data-uid="ent0026" id="entity_KonsolexContainers"><rect fill="#F1F1F1" height="70.9531" rx="2.5" ry="2.5" style="stroke:#181818;stroke-width:0.5;" width="191.5371" x="1777.23" y="663.37"/><rect fill="#F1F1F1" height="10" style="stroke:#181818;stroke-width:0.5;" width="15" x="1948.7671" y="668.37"/><rect fill="#F1F1F1" height="2" style="stroke:#181818;stroke-width:0.5;" width="4" x="1946.7671" y="670.37"/><rect fill="#F1F1F1" height="2" style="stroke:#181818;stroke-width:0.5;" width="4" x="1946.7671" y="674.37"/><text fill="#000000" font-family="sans-serif" font-size="18" lengthAdjust="spacing" textLength="131.5371" x="1802.23" y="710.078">Containers API</text></g><!--entity TelegramClient--><g class="entity" data-entity="TelegramClient" data-source-line="54" data-uid="ent0028" id="entity_TelegramClient"><rect fill="#F1F1F1" height="70.9531" rx="2.5" ry="2.5" style="stroke:#181818;stroke-width:0.5;" width="203.3672" x="40.32" y="81"/><rect fill="#F1F1F1" height="10" style="stroke:#181818;stroke-width:0.5;" width="15" x="223.6872" y="86"/><rect fill="#F1F1F1" height="2" style="stroke:#181818;stroke-width:0.5;" width="4" x="221.6872" y="88"/><rect fill="#F1F1F1" height="2" style="stroke:#181818;stroke-width:0.5;" width="4" x="221.6872" y="92"/><text fill="#000000" font-family="sans-serif" font-size="18" lengthAdjust="spacing" textLength="143.3672" x="65.32" y="127.708">Telegram Client</text></g><!--entity Browser--><g class="entity" data-entity="Browser" data-source-line="55" data-uid="ent0029" id="entity_Browser"><rect fill="#F1F1F1" height="70.9531" rx="2.5" ry="2.5" style="stroke:#181818;stroke-width:0.5;" width="179.3555" x="278.32" y="81"/><rect fill="#F1F1F1" height="10" style="stroke:#181818;stroke-width:0.5;" width="15" x="437.6755" y="86"/><rect fill="#F1F1F1" height="2" style="stroke:#181818;stroke-width:0.5;" width="4" x="435.6755" y="88"/><rect fill="#F1F1F1" height="2" style="stroke:#181818;stroke-width:0.5;" width="4" x="435.6755" y="92"/><text fill="#000000" font-family="sans-serif" font-size="18" lengthAdjust="spacing" textLength="119.3555" x="303.32" y="127.708">Web Browser</text></g><!--link Clients to TelegramCloud--><g class="link" data-entity-1="Clients" data-entity-2="TelegramCloud" data-source-line="59" data-uid="lnk30" id="link_Clients_TelegramCloud"><path d="M502.2343,117.23 C502.7848,117.23 503.3591,117.23 503.9572,117.23 C505.1532,117.23 506.4439,117.23 507.8277,117.23 C510.5953,117.23 513.7352,117.23 517.2344,117.23 C531.231,117.23 550.9766,117.23 575.6425,117.23 C624.9741,117.23 693.9867,117.23 776.0503,117.23 C940.1775,117.23 1156.5088,117.23 1372.005,117.23 C1802.9975,117.23 2230.65,117.23 2230.65,117.23 C2230.65,117.23 2230.65,229.98 2230.65,342.73 C2230.65,370.9175 2230.65,399.105 2230.65,425.5308 C2230.65,432.1372 2230.65,438.6336 2230.65,444.9923 C2230.65,448.1716 2230.65,451.3166 2230.65,454.4237 C2230.65,455.9772 2230.65,457.5213 2230.65,459.0555 C2230.65,459.8226 2230.65,460.5872 2230.65,461.3493" fill="none" id="Clients-TelegramCloud" style="stroke:#181818;stroke-width:1;"/><text fill="#000000" font-family="sans-serif" font-size="14" lengthAdjust="spacing" textLength="166.9063" x="1419.26" y="103.2251">HTTPS (User messages)</text></g><!--link Clients to AppServer--><g class="link" data-entity-1="Clients" data-entity-2="AppServer" data-source-line="60" data-uid="lnk31" id="link_Clients_AppServer"><path d="M457.84,176.9933 C457.84,177.3547 457.84,177.7169 457.84,178.0799 C457.84,178.806 457.84,179.5355 457.84,180.2681 C457.84,186.1292 457.84,192.1929 457.84,198.3639 C457.84,201.4494 457.84,204.5617 457.84,207.689 C457.84,209.2527 457.84,210.82 457.84,212.3897 C457.84,213.1745 457.84,213.9598 457.84,214.7456 C457.84,215.1384 457.84,215.5314 457.84,215.9245" fill="none" id="Clients-AppServer" style="stroke:#181818;stroke-width:1;"/><text fill="#000000" font-family="sans-serif" font-size="14" lengthAdjust="spacing" textLength="158.5664" x="288.84" y="188.0351">HTTPS (Web interface)</text></g><!--link AppServer to DBServer--><g class="link" data-entity-1="AppServer" data-entity-2="DBServer" data-source-line="63" data-uid="lnk32" id="link_AppServer_DBServer"><path d="M465.1368,322.23 C465.4142,322.23 465.6983,322.23 465.989,322.23 C470.6409,322.23 476.9926,322.23 484.7968,322.23 C500.4052,322.23 521.8234,322.23 547.0731,322.23 C597.5725,322.23 663.3975,322.23 728.72,322.23 C859.365,322.23 988,322.23 988,322.23 C988,322.23 988,336.6394 988,358.4786 C988,363.9384 988,369.8626 988,376.142" fill="none" id="AppServer-DBServer" style="stroke:#181818;stroke-width:1;"/><text fill="#000000" font-family="sans-serif" font-size="14" lengthAdjust="spacing" textLength="87.1377" x="747.17" y="308.2251">TCP/IP (SQL)</text></g><!--link AppServer to OpenAICloud--><g class="link" data-entity-1="AppServer" data-entity-2="OpenAICloud" data-source-line="66" data-uid="lnk33" id="link_AppServer_OpenAICloud"><path d="M465.8785,343.23 C466.708,343.23 467.5934,343.23 468.5337,343.23 C476.0557,343.23 487.0879,343.23 501.1289,343.23 C529.2109,343.23 569.3281,343.23 617.4688,343.23 C713.75,343.23 842.125,343.23 970.5,343.23 C1227.25,343.23 1484,343.23 1484,343.23 C1484,343.23 1484,395.94 1484,450.2975 C1484,453.6948 1484,457.0986 1484,460.4964 C1484,460.9211 1484,461.3457 1484,461.7702" fill="none" id="AppServer-OpenAICloud" style="stroke:#181818;stroke-width:1;"/><text fill="#000000" font-family="sans-serif" font-size="14" lengthAdjust="spacing" textLength="187.3525" x="874.04" y="329.2251">HTTPS (AI model requests)</text></g><!--link AppServer to TelegramCloud--><g class="link" data-entity-1="AppServer" data-entity-2="TelegramCloud" data-source-line="67" data-uid="lnk34" id="link_AppServer_TelegramCloud"><path d="M465.3539,333.23 C466.3267,333.23 467.3229,333.23 468.3426,333.23 C472.421,333.23 476.8728,333.23 481.684,333.23 C491.3064,333.23 502.3666,333.23 514.7541,333.23 C564.304,333.23 635.0895,333.23 720.0322,333.23 C889.9175,333.23 1116.4313,333.23 1342.945,333.23 C1795.9725,333.23 2249,333.23 2249,333.23 C2249,333.23 2249,388.2875 2249,445.065 C2249,448.6136 2249,452.1689 2249,455.7179 C2249,457.4924 2249,459.2653 2249,461.0351 C2249,461.4775 2249,461.9197 2249,462.3617" fill="none" id="AppServer-TelegramCloud" style="stroke:#181818;stroke-width:1;"/><text fill="#000000" font-family="sans-serif" font-size="14" lengthAdjust="spacing" textLength="165.6143" x="1268.63" y="357.2251">HTTPS (Bot commands)</text></g><!--link AppServer to KonsolexCloud--><g class="link" data-entity-1="AppServer" data-entity-2="KonsolexCloud" data-source-line="68" data-uid="lnk35" id="link_AppServer_KonsolexCloud"><path d="M465.2341,306.23 C465.7353,306.23 466.2583,306.23 466.8029,306.23 C468.9811,306.23 471.5046,306.23 474.3613,306.23 C485.7883,306.23 502.5478,306.23 523.8781,306.23 C566.5388,306.23 627.4825,306.23 700.615,306.23 C846.88,306.23 1041.9,306.23 1236.92,306.23 C1626.96,306.23 2017,306.23 2017,306.23 C2017,306.23 2017,321.5781 2017,344.84 C2017,356.4709 2017,370.0803 2017,384.7388 C2017,386.5711 2017,388.4198 2017,390.2831 C2017,391.2148 2017,392.1501 2017,393.0888 C2017,393.5581 2017,394.0283 2017,394.4994" fill="none" id="AppServer-KonsolexCloud" style="stroke:#181818;stroke-width:1;"/><text fill="#000000" font-family="sans-serif" font-size="14" lengthAdjust="spacing" textLength="198.584" x="1150.94" y="292.2251">HTTPS (Platform operations)</text></g><!--link TelegramBot to WebServer--><g class="link" data-entity-1="TelegramBot" data-entity-2="WebServer" data-source-line="71" data-uid="lnk36" id="link_TelegramBot_WebServer"><path d="M253,603.68 C253,622.16 253,644.64 253,663.11" fill="none" id="TelegramBot-WebServer" style="stroke:#181818;stroke-width:1;"/><text fill="#000000" font-family="sans-serif" font-size="14" lengthAdjust="spacing" textLength="116.6006" x="126" y="657.3851">Internal API calls</text></g><!--link OpenAIHandler to EndpointHandler--><g class="link" data-entity-1="OpenAIHandler" data-entity-2="EndpointHandler" data-source-line="72" data-uid="lnk37" id="link_OpenAIHandler_EndpointHandler"><path d="M240.4,877.58 C240.4,896.06 240.4,918.54 240.4,937.01" fill="none" id="OpenAIHandler-EndpointHandler" style="stroke:#181818;stroke-width:1;"/><text fill="#000000" font-family="sans-serif" font-size="14" lengthAdjust="spacing" textLength="96.1133" x="133.4" y="931.2951">Function calls</text></g><!--link WebServer to OpenAIHandler--><g class="link" data-entity-1="WebServer" data-entity-2="OpenAIHandler" data-source-line="73" data-uid="lnk38" id="link_WebServer_OpenAIHandler"><path d="M253,734.55 C253,756.38 253,784.22 253,806.06" fill="none" id="WebServer-OpenAIHandler" style="stroke:#181818;stroke-width:1;"/><text fill="#000000" font-family="sans-serif" font-size="14" lengthAdjust="spacing" textLength="87.418" x="155" y="756.2951">API requests</text></g><!--link WebServer to EndpointHandler--><g class="link" data-entity-1="WebServer" data-entity-2="EndpointHandler" data-source-line="74" data-uid="lnk39" id="link_WebServer_EndpointHandler"><path d="M333.07,699.23 C335.65,699.23 337.13,699.23 337.13,699.23 C337.13,699.23 337.13,862.85 337.13,937" fill="none" id="WebServer-EndpointHandler" style="stroke:#181818;stroke-width:1;"/><text fill="#000000" font-family="sans-serif" font-size="14" lengthAdjust="spacing" textLength="130.7031" x="348.13" y="802.0751">Service operations</text></g><!--link PM2 to NodeApp--><g class="link" data-entity-1="PM2" data-entity-2="NodeApp" data-source-line="75" data-uid="lnk40" id="link_PM2_NodeApp"><path d="M394,352.94 C394,368.85 394,389.5213 394,411.748 C394,422.8613 394,434.3636 394,445.8539 C394,451.5991 394,457.3413 394,463.0305 C394,464.4528 394,465.8718 394,467.2866" fill="none" id="PM2-NodeApp" style="stroke:#181818;stroke-width:1;stroke-dasharray:7,7;"/><text fill="#000000" font-family="sans-serif" font-size="14" lengthAdjust="spacing" textLength="151.8945" x="232" y="446.0751">Process management</text></g><!--SRC=[TLLDRzim3BtxLn2-j3kaMujY67RBHp-2BPk7PDXPiPbKgonvajAq6_hVHyaVaXtt4YIFxn6F5CcSmLBc6fb1s2bfmV2_Q8390dXPQVM4mAeAcMOonyGySbdHzn8AtB63iBSaMPC2BZz6mLoLbP8ee_2dA2nLWLtawaESbLcs9IlZkboeGp4kd6gjZa5r7OKoLXHSxk4ovWikqRvK24hR1nK5PYn_t6jraCLS2QNX-C0j9iaPJAjAy9nPhYIiKJ-XJbmTa7wZpulVPeIG0lDm_Gl-9G1CMxvZkHsLURx32VDi29s43GhSayEPieF8BzmsXlhuzmhbT7bFJobEOZUog1INDaHVU-wgyWeohN8q1bPCidrJJRQwIbvTEnRDI_LxCK2zP36BwcyV6DBLo_h7rowDPzPGNVYEIYNMJuFQm8Pj1QOnlY9ZPAeDGHoR6iEDPTAE2TUvqXW5NkjoRfujQia4pDsCUVkSYa_yo45Qjx8EUgirK9ETuT3Pz2xRJAvXcYqzaNvTz-CtvHRzH9gE5A0-DQgafGQ84EUzSTYEH-InXKPTqXXrELjYF-CN9OqI-0oPO7QdTEcvBJgQb1B07RDuP2yziiE7yvnE3_QXiz0n2HmI5wfaN9eJReCFwVMqdT8RV4YVqz6WD6EA46e7fPxokU1Eka0_8rvIGsROaEXLN7pmB0xgyscLOKQNp3IxqtolPvJiICpTeJ1mvDGyV7QdWrjmbyp0f7DXLPZW5fjC1WFn6TBxpIPRmxbRCYYRZNgNnf9mlGBTcQJJWPfE1H8zlWPvy9W4BINghW3bsSopzyiCpcdRQtctVMvGtamHxrnmGsjPqgi8qFZdWCQw0dgojwfs6q2jB-a2dcZwKnuqxIg0gb3xcstg2fQogI0yPbn7TBnT-kvYkzITr1VFX31fqZlTJZ6urqvtUv0-Uwi9IRjUHMoNlEtGW3kIkvcUgCmqeTCF5nVT_nEnsZ-8qlz1b6x0_mC0]--></g></svg>